<?xml version="1.0" standalone="no"?>
<!DOCTYPE svg PUBLIC "-//W3C//DTD SVG 1.1//EN" "http://www.w3.org/Graphics/SVG/1.1/DTD/svg11.dtd" >
<svg xmlns="http://www.w3.org/2000/svg" xmlns:xlink="http://www.w3.org/1999/xlink" version="1.1">
<metadata></metadata>
<defs>
<font id="vagrounded_tlregular" horiz-adv-x="1146" >
<font-face units-per-em="2048" ascent="1638" descent="-410" />
<missing-glyph horiz-adv-x="663" />
<glyph unicode="&#xfb01;" horiz-adv-x="1232" d="M-18 932q0 133 194 143q0 14 -1 27.5t-1 27.5q0 213 88 323t248 110q100 0 156.5 -44t56.5 -118q0 -68 -39 -95.5t-109 -37.5q-25 -4 -39 -10.5t-21 -19.5t-9 -34.5t-2 -56.5v-72h28q98 0 150.5 -39t52.5 -104q0 -139 -205 -139h-32v-572q0 -119 -38 -177t-122 -58 q-162 0 -162 235v572h-12q-86 0 -134 37.5t-48 101.5zM764 1376q0 78 54 132.5t132 54.5t132.5 -54.5t54.5 -132.5q0 -39 -14.5 -72.5t-40 -59t-59.5 -40t-73 -14.5q-78 0 -132 54t-54 132zM788 221v649q0 233 162 234q162 0 162 -234v-649q0 -236 -162 -235 q-162 0 -162 235z" />
<glyph unicode="&#xfb02;" horiz-adv-x="1232" d="M-18 932q0 133 194 143q0 14 -1 27.5t-1 27.5q0 213 88 323t248 110q100 0 156.5 -44t56.5 -118q0 -68 -39 -95.5t-109 -37.5q-25 -4 -39 -10.5t-21 -19.5t-9 -34.5t-2 -56.5v-72h28q98 0 150.5 -39t52.5 -104q0 -139 -205 -139h-32v-572q0 -119 -38 -177t-122 -58 q-162 0 -162 235v572h-12q-86 0 -134 37.5t-48 101.5zM788 221v1106q0 236 162 236t162 -236v-1106q0 -236 -162 -235q-162 0 -162 235z" />
<glyph horiz-adv-x="0" />
<glyph unicode="&#xd;" horiz-adv-x="0" />
<glyph unicode=" "  horiz-adv-x="663" />
<glyph unicode="&#x09;" horiz-adv-x="663" />
<glyph unicode="&#xa0;" horiz-adv-x="663" />
<glyph unicode="!" horiz-adv-x="606" d="M125 137q0 76 52 127t126 51t126 -52t52 -126t-52 -127t-126 -53t-126 52t-52 128zM143 662v602q0 233 160 233t160 -233v-602q0 -236 -160 -236t-160 236z" />
<glyph unicode="&#x22;" horiz-adv-x="876" d="M68 1413h313l-51 -575h-213zM496 1413h313l-49 -575h-213z" />
<glyph unicode="#" horiz-adv-x="1222" d="M92 348v215h207l35 215h-176v213h209l51 340h203l-54 -340h195l53 340h203l-53 -340h165v-213h-200l-31 -215h168v-215h-207l-51 -348h-205l53 348h-192l-51 -348h-207l53 348h-168zM504 563h190l33 215h-192z" />
<glyph unicode="$" horiz-adv-x="1128" d="M51 195q0 66 43 107.5t121 41.5q33 0 72 -11t83 -25.5t94 -26t105 -11.5q70 0 117 42t47 108q0 43 -17.5 73.5t-50 53t-79.5 39t-107 35.5q-104 31 -182 67.5t-129 84.5t-75.5 111.5t-24.5 149.5q0 168 106.5 291t296.5 162v102q0 111 82 111q49 0 65.5 -26.5t16.5 -84.5 v-94q174 -14 266 -72.5t92 -142.5q0 -66 -39 -103.5t-110 -37.5q-31 0 -62.5 8t-64.5 17.5t-67 17.5t-66 8q-78 0 -120 -36t-42 -89q0 -39 18.5 -63.5t52 -41t83 -32t110.5 -35.5q205 -68 303 -172.5t98 -269.5q0 -94 -32.5 -177.5t-92 -148t-142.5 -105t-185 -53.5v-135 q0 -113 -82 -113q-47 0 -64.5 27t-17.5 86v129q-205 20 -312.5 86t-107.5 148z" />
<glyph unicode="%" horiz-adv-x="1431" d="M20 1149q0 70 25 129t68 103t99 69t122 25q63 0 120.5 -26t100.5 -70t67.5 -103t24.5 -127t-24.5 -127t-67.5 -103.5t-100.5 -70t-120.5 -25.5q-66 0 -123 24.5t-99 69t-67 103.5t-25 129zM229 84q0 49 33 106l676 1180q33 55 64.5 85t78.5 30q49 0 83 -32t34 -83 q0 -45 -35 -108l-674 -1180q-68 -117 -143 -117q-49 0 -83 34t-34 85zM229 1149q0 -45 31 -77t74 -32t74.5 32t31.5 77q0 47 -31.5 77.5t-74.5 30.5t-74 -30.5t-31 -77.5zM784 307q0 70 25 129.5t68 103.5t99 68.5t122 24.5q63 0 120.5 -25.5t100.5 -69.5t67.5 -103.5 t24.5 -127.5t-24.5 -127t-67.5 -103t-100.5 -69.5t-120.5 -25.5q-66 0 -123 24.5t-99 68.5t-67 103t-25 129zM993 307q0 -45 31 -76.5t74 -31.5t73.5 31.5t30.5 76.5q0 47 -30.5 78t-73.5 31t-74 -31t-31 -78z" />
<glyph unicode="&#x26;" horiz-adv-x="1402" d="M41 408q0 145 83 254.5t253 193.5q-70 74 -104.5 147.5t-34.5 151.5q0 72 29.5 134.5t85 108.5t133 72.5t173.5 26.5t174 -27.5t133.5 -77t85 -114t29.5 -137.5q0 -117 -61.5 -207t-185.5 -166l198 -236q78 94 130 145.5t108 51.5q51 0 88 -39t37 -98t-46 -119.5 t-139 -146.5q59 -68 93 -116t34 -101q0 -59 -40 -99.5t-99 -40.5q-51 0 -98 39t-111 113q-88 -80 -203.5 -122t-257.5 -42q-106 0 -196 35t-154.5 95t-100.5 142t-36 179zM371 414q0 -82 52 -136.5t144 -54.5q125 0 252 111l-268 307q-90 -41 -135 -100.5t-45 -126.5z M541 1147q-1 -78 114 -182q162 68 162 176q0 23 -11 45t-30.5 39.5t-45 29t-56.5 11.5q-57 0 -95 -36t-38 -83z" />
<glyph unicode="'" horiz-adv-x="448" d="M68 1413h313l-49 -575h-215z" />
<glyph unicode="(" horiz-adv-x="663" d="M143 618q0 197 34 384.5t95 351.5q35 92 73 139t97 47t93 -33.5t34 -93.5q0 -39 -23.5 -107.5t-51 -167t-50 -228.5t-22.5 -292q0 -164 22.5 -293.5t50 -228t51 -166t23.5 -106.5q0 -59 -33.5 -93t-93.5 -34q-94 0 -155 145q-66 154 -105 354.5t-39 421.5z" />
<glyph unicode=")" horiz-adv-x="663" d="M94 -174q0 39 22.5 106.5t50.5 166t51.5 227t23.5 292.5t-23.5 294t-51.5 228.5t-50.5 165t-22.5 105.5q0 63 34 96t93 33q96 0 156 -147q66 -154 104.5 -353.5t38.5 -421.5q0 -197 -33.5 -382t-95.5 -351q-35 -94 -73.5 -141t-96.5 -47q-59 0 -93 32.5t-34 96.5z" />
<glyph unicode="*" horiz-adv-x="1024" d="M160 965q0 29 13 48t38 34.5t60.5 29t82.5 29.5q-47 16 -82.5 29.5t-60.5 29t-38 35t-13 47.5q0 41 27.5 72t66.5 31q49 0 87 -32t91 -73q-4 43 -12 78t-8 63q0 51 26.5 81t73.5 30t74.5 -29.5t27.5 -78.5q0 -33 -9 -68t-13 -76q55 45 93 75t85 30q39 0 66.5 -31 t27.5 -72q0 -57 -50 -83.5t-144 -57.5q92 -31 143 -57.5t51 -83.5q0 -41 -27.5 -72t-66.5 -31q-47 0 -85 31t-93 76q4 -41 13 -77t9 -67q0 -51 -27.5 -80.5t-74.5 -29.5t-73.5 29.5t-26.5 80.5q0 29 8 65t12 79q-53 -41 -91 -74t-87 -33q-39 0 -66.5 31t-27.5 72z" />
<glyph unicode="+" d="M66 592v274h364v406h285v-406h364v-274h-364v-410h-285v410h-364z" />
<glyph unicode="," horiz-adv-x="473" d="M-72 -178q0 45 33 102l162 295q31 57 64.5 85t78.5 28q55 0 95 -36t40 -91q0 -43 -32 -105l-162 -295q-61 -113 -144 -112q-53 0 -94 37t-41 92z" />
<glyph unicode="-" horiz-adv-x="876" d="M70 569q0 66 42 103t119 37h416q78 0 119 -38t41 -104q0 -139 -162 -139h-416q-78 0 -118.5 38t-40.5 103z" />
<glyph unicode="." horiz-adv-x="473" d="M51 172q0 78 54.5 132t132.5 54t131 -54t53 -132q0 -39 -14.5 -72.5t-39 -59.5t-58.5 -40t-72 -14q-78 0 -132.5 54t-54.5 132z" />
<glyph unicode="/" horiz-adv-x="757" d="M-92 82q0 43 29 98l636 1202q31 57 64 88t80 31q55 0 95 -35.5t40 -91.5q0 -23 -8 -47t-23 -53l-635 -1202q-61 -119 -143 -119q-55 0 -95 37t-40 92z" />
<glyph unicode="0" horiz-adv-x="1327" d="M57 727q0 180 44 323.5t124 243t191.5 151.5t247.5 52q135 0 247.5 -52t192.5 -151.5t124 -243t44 -323.5q0 -182 -44 -324.5t-124 -242t-192.5 -151.5t-247.5 -52t-247 52t-192 151.5t-124 242t-44 324.5zM403 729q0 -225 72 -345t191 -120t190.5 120t71.5 345 t-72.5 344t-189.5 119t-190 -119t-73 -344z" />
<glyph unicode="1" horiz-adv-x="735" d="M-27 1303q0 154 236 153h166q104 0 146 -56.5t42 -178.5v-1000q0 -236 -168 -235q-168 0 -168 235v928h-30q-223 0 -224 154z" />
<glyph unicode="2" horiz-adv-x="1071" d="M8 154q0 61 71 142t193 216q176 195 272.5 323t96.5 214q0 63 -36 101t-89 38q-47 0 -88 -37t-70 -113q-31 -86 -63.5 -127t-97.5 -41q-72 0 -118 46.5t-46 123.5q0 57 26.5 132t75.5 137q74 92 174.5 140t216.5 48q106 0 192.5 -32.5t148 -91t94 -137.5t32.5 -171 q0 -88 -33.5 -173t-98 -175t-159 -190.5t-213.5 -219.5h306q236 0 235 -153q0 -154 -235 -154h-588q-199 0 -199 154z" />
<glyph unicode="3" horiz-adv-x="1110" d="M4 360q0 72 40 115t106 43q49 0 80.5 -23.5t66.5 -68.5q23 -31 44 -60.5t46 -51t55.5 -35t71.5 -13.5q74 0 125 53.5t51 133.5q0 88 -53 121.5t-158 50.5q-74 12 -106.5 43.5t-32.5 103.5q0 66 33 97.5t106 48.5q154 37 154 149q0 57 -33 91t-88 34q-49 0 -83 -23.5 t-69 -56.5q-47 -43 -81.5 -72.5t-94.5 -29.5q-53 0 -95 40t-42 99q0 61 37 122.5t101.5 112t150.5 82t182 31.5q94 0 175 -31.5t138.5 -85t90 -126t32.5 -154.5q0 -94 -40 -166t-126 -133q242 -125 242 -373q0 -98 -38 -184t-107.5 -149.5t-164.5 -100.5t-210 -37 q-180 0 -328 113q-88 68 -133 145.5t-45 144.5z" />
<glyph unicode="4" horiz-adv-x="1275" d="M6 442q0 57 24.5 100.5t53.5 90.5l434 686q53 86 108.5 122t137.5 36q115 0 187.5 -83t72.5 -253v-535q14 2 26.5 3t22.5 1q86 0 133 -41t47 -102q0 -154 -198 -154h-31v-153q0 -86 -43 -132t-119 -46q-141 0 -141 188v143h-514q-100 0 -150.5 31t-50.5 98zM379 606h342 v557z" />
<glyph unicode="5" horiz-adv-x="1052" d="M-25 248q0 66 39 106.5t99 40.5q37 0 71.5 -19.5t72.5 -43t81 -43t98 -19.5q43 0 80 17.5t65.5 47.5t45 69.5t16.5 87.5q0 98 -50 151t-134 53q-31 0 -62.5 -8t-62.5 -17t-60.5 -17.5t-58.5 -8.5q-129 0 -129 143q0 14 3 43t7 70l47 379q6 57 21.5 92t42 53.5t64.5 24.5 t89 6h404q213 0 213 -153q0 -72 -50 -112t-151 -40h-342l-22 -176q76 18 141 18q92 0 173 -35.5t139.5 -100t92 -153t33.5 -194.5q0 -117 -40 -218.5t-112.5 -176t-174 -116.5t-224.5 -42q-98 0 -182 24.5t-147.5 65.5t-99.5 93.5t-36 107.5z" />
<glyph unicode="6" d="M45 483q0 156 84 341.5t256 398.5q111 135 187.5 206.5t140.5 71.5q31 0 60.5 -12t51 -33.5t34.5 -49.5t13 -58q0 -39 -25.5 -78t-68.5 -87t-97.5 -109.5t-111.5 -143.5q35 4 65 7t52 3q84 0 160 -35t132 -98.5t90 -149.5t34 -186q0 -104 -41 -198.5t-114 -164 t-172 -110.5t-218 -41q-111 0 -205 39t-162.5 108.5t-106.5 166t-38 212.5zM383 467q0 -86 55.5 -144.5t132.5 -58.5q78 0 133.5 58.5t55.5 144.5t-55.5 142.5t-133.5 56.5t-133 -56.5t-55 -142.5z" />
<glyph unicode="7" horiz-adv-x="962" d="M-29 1298q0 76 49.5 117t149.5 41h545q242 0 241 -182q0 -20 -8 -53t-24 -70l-482 -1038q-74 -156 -174 -156q-74 0 -123 46t-49 116q0 33 12.5 68.5t32.5 76.5l430 887h-376q-109 0 -166.5 28.5t-57.5 118.5z" />
<glyph unicode="8" horiz-adv-x="1118" d="M31 432q0 117 48 210.5t146 154.5q-133 117 -133 290q0 86 35 161t97.5 130.5t148.5 87t186 31.5t186 -31.5t148.5 -87t97.5 -130t35 -161.5q0 -174 -133 -290q195 -127 194 -365q0 -98 -37.5 -185t-107.5 -151.5t-167 -101.5t-216 -37t-216 37t-167 101.5t-107.5 151.5 t-37.5 185zM362 463q0 -43 15.5 -82t43.5 -66.5t62.5 -44t75.5 -16.5q39 0 75 16.5t63.5 44t43 65.5t15.5 83q0 90 -57.5 150.5t-139.5 60.5q-41 0 -75.5 -16.5t-62.5 -45t-43.5 -66.5t-15.5 -83zM410 1057q0 -31 12 -58.5t32.5 -49t47 -34t57.5 -12.5q63 0 107.5 45 t44.5 109q0 66 -44 110.5t-108 44.5q-61 0 -105 -44.5t-44 -110.5z" />
<glyph unicode="9" d="M45 979q0 109 41 204t113.5 165.5t173 110.5t217.5 40q111 0 205 -39t161.5 -107.5t105.5 -164.5t38 -213q0 -156 -84 -342.5t-256 -399.5q-111 -135 -186.5 -206.5t-139.5 -71.5q-31 0 -60.5 12.5t-51 34t-35 50t-13.5 59.5q0 39 26 77.5t69 87t97.5 108.5t111.5 144 q-37 -4 -64 -7t-43 -3q-90 0 -168 36t-135 98.5t-90 146.5t-33 180zM387 991q0 -43 15.5 -80t41 -63.5t59.5 -41.5t72 -15q78 0 133.5 57t55.5 143t-55.5 143.5t-133.5 57.5t-133 -57.5t-55 -143.5z" />
<glyph unicode=":" horiz-adv-x="473" d="M51 172q0 78 54.5 132t132.5 54t131 -54t53 -132q0 -39 -14.5 -72.5t-39 -59.5t-58.5 -40t-72 -14q-78 0 -132.5 54t-54.5 132zM51 793q0 78 54.5 131t132.5 53t131 -53.5t53 -130.5q0 -39 -14.5 -73t-39 -59.5t-58.5 -40t-72 -14.5q-78 0 -132.5 54.5t-54.5 132.5z" />
<glyph unicode=";" horiz-adv-x="473" d="M-72 -178q0 45 33 102l162 295q31 57 64.5 85t78.5 28q55 0 95 -36t40 -91q0 -43 -32 -105l-162 -295q-61 -113 -144 -112q-53 0 -94 37t-41 92zM51 793q0 78 54.5 131t132.5 53t131 -53.5t53 -130.5q0 -39 -14.5 -73t-39 -59.5t-58.5 -40t-72 -14.5q-78 0 -132.5 54.5 t-54.5 132.5z" />
<glyph unicode="&#x3c;" d="M88 614v228l971 438v-309l-582 -246l582 -238v-311z" />
<glyph unicode="=" d="M68 391v277h1011v-277h-1011zM68 788v275h1011v-275h-1011z" />
<glyph unicode="&#x3e;" d="M88 176v307l596 244l-596 242v309l971 -432v-242z" />
<glyph unicode="?" horiz-adv-x="1042" d="M10 1124q0 63 36 128t100.5 118t153.5 87t198 34q111 0 200.5 -37t154.5 -99.5t100.5 -145.5t35.5 -175q0 -166 -96 -282.5t-262 -147.5v-6q0 -98 -44 -149.5t-116 -51.5t-114 47.5t-42 139.5v129q0 55 14.5 84.5t55.5 46.5q31 14 67.5 19t73.5 22q115 45 115 164 q0 55 -42 95t-101 40t-101.5 -24.5t-87.5 -72.5q-41 -45 -76.5 -78.5t-89.5 -33.5q-57 0 -95 42t-38 107zM293 137q0 76 53 127t127 51t126 -52t52 -126t-52 -127t-126 -53t-127 52t-53 128z" />
<glyph unicode="@" horiz-adv-x="2048" d="M90 401q0 213 81 389.5t221 303.5t326.5 197.5t397.5 70.5q199 0 355.5 -57.5t265 -154.5t166 -227t57.5 -278q0 -125 -42 -242.5t-119 -210t-183.5 -148.5t-233.5 -56q-74 0 -118.5 20.5t-71.5 85.5q-78 -94 -211 -94q-78 0 -146.5 31.5t-119.5 90t-82 139.5t-31 179 q0 94 31 176t84 140.5t124.5 92.5t151.5 34q123 0 199 -90q43 80 117 79q125 0 125 -180v-491q0 -25 12 -37t31 -12q45 0 122 75q174 162 175 422q0 117 -47.5 217.5t-134.5 174t-209.5 115.5t-272.5 42q-193 0 -347.5 -64.5t-263 -174t-167 -254t-58.5 -302.5 q0 -154 54.5 -278.5t154 -211.5t239.5 -135t312 -48q164 0 317.5 49t286.5 141l82 -117q-309 -231 -682 -231q-221 0 -397 64.5t-299 176t-187.5 263t-64.5 325.5zM860 444q0 -98 46 -152t118 -54q68 0 114 56t46 150q0 92 -47 146.5t-113 54.5q-70 0 -117 -54.5t-47 -146.5 z" />
<glyph unicode="A" horiz-adv-x="1280" d="M0 137q0 25 3 49.5t13 46.5l379 1029q41 111 101.5 163t152.5 52q174 0 244 -193l369 -1046q22 -60 22 -101q0 -76 -47 -116.5t-117 -40.5q-125 0 -174 159l-41 135h-538l-50 -147q-49 -147 -159 -147q-70 0 -114 44t-44 113zM461 580h348l-168 540z" />
<glyph unicode="B" horiz-adv-x="1261" d="M129 209v1014q0 61 10.5 105t36 73t69.5 42t113 13h273q225 0 339.5 -98t114.5 -264q0 -209 -180 -287q143 -35 219 -130t76 -239q0 -201 -132 -319.5t-386 -118.5h-328q-66 0 -109.5 10t-69 35t-36 65t-10.5 99zM461 285h166q113 0 169 43t56 121q0 86 -57.5 124.5 t-173.5 38.5h-160v-327zM461 889h139q76 0 120 40t44 101q0 66 -45 105t-123 39h-135v-285z" />
<glyph unicode="C" horiz-adv-x="1232" d="M57 727q0 174 55.5 316.5t152.5 244t227.5 155.5t281.5 54q96 0 177 -20.5t138.5 -52.5t89 -74.5t31.5 -85.5q0 -59 -41 -104.5t-100 -45.5q-29 0 -60.5 9.5t-68.5 19.5t-78 19t-86 9q-80 0 -145.5 -31.5t-113.5 -90t-73.5 -142.5t-25.5 -188q0 -205 100 -322.5 t268 -117.5q51 0 95.5 12t82 25.5t70.5 25.5t62 12q51 0 92 -43t41 -102q0 -49 -33 -94t-93.5 -80t-145.5 -56.5t-187 -21.5q-158 0 -289 54.5t-225 154.5t-146.5 242.5t-52.5 318.5z" />
<glyph unicode="D" horiz-adv-x="1427" d="M129 209v1014q0 61 10.5 105t36 73t69.5 42t113 13h267q135 0 241.5 -24.5t192.5 -77.5q143 -92 226 -253t83 -358q0 -170 -48 -307t-140.5 -234.5t-224.5 -149.5t-298 -52h-303q-66 0 -109.5 10t-69 35t-36 65t-10.5 99zM461 307h151q395 0 396 438q0 401 -402 402h-145 v-840z" />
<glyph unicode="E" horiz-adv-x="1034" d="M129 209v1014q0 61 10.5 105t36 73t69.5 42t113 13h373q236 0 236 -156q0 -153 -233 -153h-3h-270v-260h233q236 0 236 -154q0 -153 -233 -153h-3h-233v-273h280q236 0 236 -153q0 -154 -236 -154h-387q-66 0 -109.5 10t-69 35t-36 65t-10.5 99z" />
<glyph unicode="F" horiz-adv-x="999" d="M129 217v1006q0 61 10.5 105t36 73t69.5 42t113 13h373q236 0 236 -156q0 -153 -233 -153h-3h-270v-260h233q236 0 236 -154q0 -153 -233 -153h-3h-233v-363q0 -235 -165 -235h-1q-166 0 -166 235z" />
<glyph unicode="G" horiz-adv-x="1478" d="M57 729q0 178 52.5 320.5t148.5 242t231.5 153.5t303.5 54q121 0 220 -27.5t169.5 -70.5t108.5 -97.5t38 -107.5q0 -61 -41 -108.5t-100 -47.5q-37 0 -77 22.5t-88 48.5t-106.5 48.5t-134.5 22.5q-168 0 -267 -118t-99 -329q0 -109 26.5 -193.5t74.5 -144t114.5 -91.5 t148.5 -32q131 0 211 79t84 214h-117q-117 0 -175 36t-58 118t58.5 119t174.5 37h244q123 0 177.5 -50.5t54.5 -171.5q0 -152 -48.5 -279.5t-136.5 -221t-214 -145.5t-281 -52q-152 0 -280 55.5t-220 156.5t-144.5 243.5t-52.5 316.5z" />
<glyph unicode="H" horiz-adv-x="1531" d="M129 217v1022q0 236 166 236t166 -236v-344h610v344q0 236 166 236t166 -236v-1022q0 -235 -165 -235h-1q-166 0 -166 235v371h-610v-371q0 -235 -165 -235h-1q-166 0 -166 235z" />
<glyph unicode="I" horiz-adv-x="606" d="M137 217v1022q0 236 166 236t166 -236v-1022q0 -235 -165 -235h-1q-166 0 -166 235z" />
<glyph unicode="J" horiz-adv-x="917" d="M-14 201q0 66 42 109.5t111 43.5q31 0 58.5 -11t53 -25.5t50.5 -25.5t49 -11q68 0 88.5 68.5t20.5 201.5v688q0 236 166 236t166 -236v-795q0 -242 -109 -362.5t-317 -120.5q-86 0 -156 19.5t-119 52.5t-76.5 77t-27.5 91z" />
<glyph unicode="K" horiz-adv-x="1261" d="M129 217v1022q0 236 166 236t166 -236v-360l422 477q47 53 87 83.5t85 30.5q59 0 104 -45t45 -106q0 -76 -84 -164l-358 -373l444 -483q84 -94 84 -164q0 -66 -48 -109.5t-105 -43.5q-53 0 -92 32.5t-87 83.5l-497 549v-430q0 -235 -165 -235h-1q-166 0 -166 235z" />
<glyph unicode="L" horiz-adv-x="944" d="M129 209v1030q0 236 166 236t166 -236v-932h280q236 0 236 -153q0 -154 -236 -154h-387q-66 0 -109.5 10t-69 35t-36 65t-10.5 99z" />
<glyph unicode="M" horiz-adv-x="1767" d="M31 154q0 39 12 100l178 993q20 115 69.5 171.5t155.5 56.5q182 0 232 -197l221 -870l207 872q47 195 227 195q111 0 162 -58.5t72 -181.5l162 -1002q8 -47 8 -79q0 -82 -47.5 -128t-120.5 -46q-139 0 -164 194l-105 870q-104 -446 -168.5 -696t-101.5 -309 q-23 -35 -55.5 -47t-83.5 -12q-82 0 -127 36.5t-68 130.5l-215 897l-114 -849q-16 -111 -56.5 -163t-117.5 -52q-72 0 -117 46t-45 128z" />
<glyph unicode="N" horiz-adv-x="1531" d="M129 217v1036q0 111 37 166.5t117 55.5q55 0 95 -27t81 -80l612 -811v682q0 236 166 236t166 -236v-1059q0 -104 -36 -155.5t-116 -51.5q-53 0 -98 29t-92 92l-600 793v-670q0 -235 -165 -235h-1q-166 0 -166 235z" />
<glyph unicode="O" horiz-adv-x="1546" d="M57 727q0 174 52.5 315.5t146.5 242.5t225 156.5t291 55.5t291 -55.5t226 -156.5t147.5 -242.5t52.5 -315.5q0 -172 -51.5 -314.5t-145.5 -243.5t-226 -156.5t-294 -55.5t-294 55.5t-225 156.5t-144.5 243.5t-51.5 314.5zM418 723q0 -104 25.5 -187t72.5 -141.5 t112.5 -89.5t143.5 -31t143.5 31t112.5 89.5t72.5 141t25.5 187.5q0 109 -25.5 193.5t-72.5 144t-111.5 90.5t-144.5 31t-144.5 -31t-111.5 -90.5t-72.5 -144t-25.5 -193.5z" />
<glyph unicode="P" horiz-adv-x="1241" d="M129 217v1006q0 61 10.5 105t36 73t69.5 42t113 13h299q125 0 224.5 -35t168 -99.5t104.5 -156.5t36 -204q0 -229 -132 -361.5t-374 -132.5h-223v-250q0 -235 -165 -235h-1q-166 0 -166 235zM461 768h143q227 0 227 193q0 98 -55 144t-172 46h-143v-383z" />
<glyph unicode="Q" horiz-adv-x="1546" d="M57 727q0 174 52.5 315.5t146.5 242.5t225 156.5t291 55.5t291 -55.5t226 -156.5t147.5 -242.5t52.5 -315.5q0 -133 -34 -251t-99 -218l102 -94q35 -31 53.5 -70t18.5 -74q0 -59 -42 -101t-99 -42q-72 0 -146 68l-110 102q-78 -47 -166 -68.5t-195 -21.5 q-162 0 -294 55.5t-225 156.5t-144.5 243.5t-51.5 314.5zM418 723q0 -104 25.5 -187t72.5 -141.5t113.5 -89.5t146.5 -31q54 1 107 21q-47 41 -69.5 74.5t-22.5 76.5q0 59 36.5 97.5t90.5 38.5q41 0 79.5 -25t85.5 -72q43 117 43 238q0 109 -25.5 193.5t-72.5 144 t-111.5 90.5t-144.5 31t-144.5 -31t-111.5 -90.5t-72.5 -144.5t-25.5 -193z" />
<glyph unicode="R" horiz-adv-x="1222" d="M129 217v1006q0 61 10.5 105t36 73t69.5 42t113 13h258q135 0 238.5 -33.5t174.5 -93t106.5 -143.5t35.5 -185q0 -156 -91 -260t-257 -133l262 -291q98 -111 99 -190q0 -66 -44 -111t-114 -45q-49 0 -90 31t-88 88l-387 485v-358q0 -235 -165 -235h-1q-166 0 -166 235z M461 797h153q102 0 156.5 47t54.5 133q0 82 -53 128t-154 46h-157v-354z" />
<glyph unicode="S" horiz-adv-x="1128" d="M51 195q0 66 43 107.5t121 41.5q33 0 72 -11t83 -25.5t94 -26t105 -11.5q70 0 117 42t47 108q0 43 -17.5 73.5t-50 53t-79.5 39t-107 35.5q-104 31 -182 67.5t-129 84.5t-75.5 111.5t-24.5 149.5q0 98 36.5 182t106.5 146.5t167 97.5t218 35q90 0 164 -17.5t126 -46.5 t79.5 -68.5t27.5 -82.5q0 -66 -39 -103.5t-110 -37.5q-31 0 -62.5 8t-64.5 17.5t-67 17.5t-66 8q-78 0 -120 -36t-42 -89q0 -39 18.5 -63.5t52 -41t83 -32t110.5 -35.5q205 -68 303 -172t98 -270q0 -106 -38.5 -195.5t-112.5 -155t-178.5 -102.5t-235.5 -37 q-102 0 -188 19.5t-149.5 52.5t-98.5 75t-35 87z" />
<glyph unicode="T" horiz-adv-x="966" d="M-41 1300q0 156 236 156h577q236 0 236 -156q0 -153 -233 -153h-3h-123v-930q0 -235 -165 -235h-1q-166 0 -166 235v930h-122q-236 0 -236 153z" />
<glyph unicode="U" horiz-adv-x="1507" d="M129 625v614q0 236 166 236t166 -236v-577q0 -387 293 -388q293 0 293 388v577q0 236 165 236q166 0 166 -236v-614q0 -164 -44 -288t-126 -209t-196.5 -128t-257.5 -43t-259 43t-197 128t-125 209t-44 288z" />
<glyph unicode="V" horiz-adv-x="1179" d="M-27 1305q0 72 49.5 118.5t122.5 46.5q55 0 89 -33.5t63 -109.5l307 -827l285 815q29 82 63.5 118.5t100.5 36.5q76 0 118.5 -40.5t42.5 -112.5q0 -25 -5 -54.5t-17 -60.5l-430 -1093q-29 -74 -68 -106t-100 -32q-59 0 -95 30t-63 95l-444 1114q-18 43 -19 95z" />
<glyph unicode="W" horiz-adv-x="1871" d="M14 1288v39q0 70 47.5 109t120.5 39q66 0 107 -37t53 -107l174 -925l242 929q37 139 184 140q143 0 180 -144l238 -925l174 903q16 86 55 126t113 40q76 0 120 -44.5t44 -109.5q0 -47 -13 -98l-254 -1022q-14 -57 -30.5 -98.5t-41 -68t-62.5 -39.5t-95 -13q-90 0 -143 44 t-78 142l-217 831l-205 -813q-51 -204 -238 -204h-2q-98 0 -149 51t-78 168l-242 1052q-4 16 -4 35z" />
<glyph unicode="X" horiz-adv-x="1185" d="M-29 127q0 45 20.5 83t53.5 85l354 493l-266 373q-33 45 -53.5 83t-20.5 81q0 61 45.5 106.5t116.5 45.5q45 0 85 -33t85 -96l205 -287l209 291q90 125 176 125q27 0 53.5 -12.5t47 -33t32.5 -46t12 -52.5q0 -49 -21.5 -87t-51.5 -81l-269 -372l355 -500q31 -45 53 -83 t22 -85q0 -55 -45 -99t-106 -44q-51 0 -93 31.5t-87 92.5l-295 414l-293 -411q-45 -61 -86 -94t-88 -33q-31 0 -57.5 12t-47 32.5t-33 47t-12.5 53.5z" />
<glyph unicode="Y" horiz-adv-x="1056" d="M-39 1329q0 55 44 101.5t116 46.5q43 0 84 -33t86 -96l248 -355l252 359q88 125 178 125q27 0 53.5 -12.5t47 -33t32.5 -46t12 -52.5q0 -49 -22.5 -87t-53.5 -81l-336 -479v-469q0 -235 -164 -235h-1q-166 0 -166 235v469l-336 475q-31 43 -52.5 81t-21.5 87z" />
<glyph unicode="Z" horiz-adv-x="1089" d="M-12 166q0 59 26.5 104t65.5 97l594 788h-428q-119 0 -177.5 36t-58.5 114q0 151 233 151h3h563q143 0 214 -38t71 -124q0 -57 -28 -103t-69 -99l-579 -785h469q235 0 235 -152q0 -155 -235 -155h-666q-233 0 -233 166z" />
<glyph unicode="[" horiz-adv-x="663" d="M119 -94v1401q0 61 10 105t35.5 72.5t70 42t113.5 13.5h148q78 0 117.5 -28.5t39.5 -79.5q0 -111 -159 -111h-97v-1405h99q78 0 117.5 -29.5t39.5 -81.5q0 -109 -159 -108h-148q-66 0 -109.5 10t-70.5 35t-37 64.5t-10 99.5z" />
<glyph unicode="\" horiz-adv-x="757" d="M-92 1374q0 55 40 91t95 36q47 0 80 -30.5t63 -88.5l635 -1202q31 -59 31 -98q0 -55 -41 -92t-96 -37q-82 0 -144 119l-634 1202q-29 57 -29 100z" />
<glyph unicode="]" horiz-adv-x="663" d="M10 -195q0 51 40 81t118 30h98v1405h-96q-160 0 -160 111q0 51 40 79.5t118 28.5h147q70 0 114 -13.5t69.5 -42t36 -72.5t10.5 -105v-1401q0 -59 -10.5 -99t-36 -65t-69.5 -35t-110 -10h-149q-160 0 -160 108z" />
<glyph unicode="^" d="M90 668l365 829h235l365 -829h-312l-174 426l-168 -426h-311z" />
<glyph unicode="_" horiz-adv-x="1024" d="M0 -102h1024v-103h-1024v103z" />
<glyph unicode="`" horiz-adv-x="1024" d="M242 1528q0 55 36.5 91t92.5 36q70 0 116 -66l150 -205q35 -47 35 -90q0 -51 -31 -81.5t-80 -30.5q-53 0 -110 63l-156 172q-53 59 -53 111z" />
<glyph unicode="a" horiz-adv-x="1232" d="M47 545q0 123 40 227.5t108.5 181t159.5 119.5t194 43q162 0 258 -115q57 102 154 103q84 0 121.5 -57.5t37.5 -176.5v-649q0 -235 -158 -235h-1q-102 0 -154 112q-100 -123 -270 -123q-98 0 -187.5 41t-157 117t-106.5 180.5t-39 231.5zM381 549q0 -123 59.5 -193.5 t149.5 -70.5t148.5 71.5t58.5 192.5q0 119 -59.5 188.5t-147.5 69.5t-148.5 -68.5t-60.5 -189.5z" />
<glyph unicode="b" horiz-adv-x="1232" d="M111 221v1106q0 236 161 236q162 0 162 -236v-295q47 41 109.5 66.5t144.5 25.5q100 0 190.5 -43t158 -119.5t107.5 -183t40 -233.5q0 -119 -40 -222.5t-108.5 -179t-159 -119.5t-188.5 -44q-164 0 -262 110q-59 -104 -154 -104q-162 0 -161 235zM428 551 q0 -127 60.5 -198.5t152.5 -71.5t152.5 73.5t60.5 196.5q0 127 -60.5 200.5t-152.5 73.5t-152.5 -72.5t-60.5 -201.5z" />
<glyph unicode="c" horiz-adv-x="972" d="M47 545q0 125 39 230.5t111.5 181t175 118.5t229.5 43q164 0 262.5 -57t98.5 -150q0 -59 -37 -98t-97 -39q-23 0 -48 7t-53 16.5t-59.5 17.5t-66.5 8q-98 0 -160.5 -73.5t-62.5 -198.5q0 -127 62.5 -199.5t172.5 -72.5q35 0 67 7t59.5 16t51 17.5t44.5 8.5q55 0 90 -41 t35 -99q0 -43 -28 -81.5t-78 -68.5t-119.5 -47.5t-153.5 -17.5q-119 0 -217.5 41t-169 117t-109.5 180.5t-39 233.5z" />
<glyph unicode="d" horiz-adv-x="1232" d="M47 555q0 123 40 227.5t108.5 180t158.5 118.5t191 43q147 0 254 -92v295q0 236 162 236q160 0 159 -236v-1106q0 -119 -38 -177t-121 -58q-96 0 -154 104q-99 -110 -259 -110h-3q-98 0 -188.5 44t-159 120.5t-109.5 182t-41 228.5zM379 551q0 -123 60.5 -196.5 t152.5 -73.5t151.5 72.5t59.5 197.5q0 129 -59.5 201.5t-151.5 72.5t-152.5 -73.5t-60.5 -200.5z" />
<glyph unicode="e" d="M47 543q0 123 41 229.5t113.5 183t172 120.5t216.5 44t213 -43t165.5 -115.5t108.5 -170t39 -205.5q0 -41 -9 -66.5t-29.5 -40t-50.5 -19.5t-71 -5h-581q10 -92 76.5 -142.5t171.5 -50.5q61 0 111 16.5t91 36t75 36t63 16.5q59 0 94 -35t35 -90q0 -47 -37 -95.5 t-101.5 -87.5t-153.5 -63.5t-194 -24.5q-119 0 -221 43t-177 119t-118 181.5t-43 228.5zM375 666h426q-6 86 -66.5 139t-142.5 53t-141.5 -51t-75.5 -141z" />
<glyph unicode="f" horiz-adv-x="718" d="M-18 932q0 133 194 143q0 14 -1 27.5t-1 27.5q0 213 88 323t248 110q100 0 156.5 -44t56.5 -118q0 -68 -39 -95.5t-109 -37.5q-25 -4 -40 -10.5t-23 -19.5t-11 -34.5t-3 -56.5v-72h53q98 0 151.5 -39t53.5 -104q0 -139 -205 -139h-53v-572q0 -119 -38 -177t-122 -58 q-162 0 -162 235v572h-12q-86 0 -134 37.5t-48 101.5z" />
<glyph unicode="g" horiz-adv-x="1222" d="M47 545q0 123 40 227.5t108.5 181t159.5 119.5t194 43q162 0 258 -115q29 51 67.5 77t75.5 26q162 0 162 -234v-649q0 -147 -14.5 -257.5t-61.5 -188.5q-143 -242 -491 -242q-111 0 -199 18.5t-148.5 51t-93 75.5t-32.5 91q0 61 40 101t99 40q31 0 64.5 -13.5t74.5 -30 t92.5 -29.5t114.5 -13q119 0 185.5 69.5t66.5 202.5q0 10 -1 19.5t-1 19.5q-103 -151 -291 -151h-2q-96 0 -180 42t-148.5 115.5t-101.5 177t-37 226.5zM381 545q0 -125 59.5 -198t151.5 -73t152.5 74t60.5 197t-61.5 193.5t-151.5 70.5t-150.5 -70.5t-60.5 -193.5z" />
<glyph unicode="h" horiz-adv-x="1206" d="M111 221v1106q0 236 161 236q162 0 162 -236v-319q55 59 121 80.5t156 21.5q190 0 291.5 -107.5t101.5 -318.5v-463q0 -235 -161 -235h-1q-162 0 -162 235v365q0 129 -37.5 189.5t-136.5 60.5q-92 0 -132 -61.5t-40 -184.5v-369q0 -235 -161 -235h-1q-162 0 -161 235z " />
<glyph unicode="i" horiz-adv-x="563" d="M96 1376q0 78 54.5 132.5t132.5 54.5t131 -54.5t53 -132.5q0 -39 -14.5 -72.5t-39 -59t-58 -40t-72.5 -14.5q-78 0 -132.5 54t-54.5 132zM121 221v649q0 233 162 234q160 0 159 -234v-649q0 -119 -37.5 -177t-121.5 -58q-162 0 -162 235z" />
<glyph unicode="j" horiz-adv-x="563" d="M96 1376q0 78 54.5 132.5t132.5 54.5t131 -54.5t53 -132.5q0 -39 -14.5 -72.5t-39 -59t-58 -40t-72.5 -14.5q-78 0 -132.5 54t-54.5 132zM121 -215v1085q0 233 162 234q160 0 159 -234v-1085q0 -119 -37.5 -177.5t-121.5 -58.5q-162 0 -162 236z" />
<glyph unicode="k" horiz-adv-x="1052" d="M111 221v1106q0 236 161 236q162 0 162 -236v-594l275 285q43 45 82.5 66.5t82.5 21.5q57 0 96.5 -37t39.5 -88q0 -39 -21.5 -80t-60.5 -76l-217 -200l301 -355q33 -39 48 -75.5t15 -79.5q0 -55 -43 -94t-108 -39q-92 0 -168 100l-322 430v-291q0 -235 -161 -235h-1 q-162 0 -161 235z" />
<glyph unicode="l" horiz-adv-x="563" d="M121 221v1106q0 236 162 236q160 0 159 -236v-1106q0 -119 -37.5 -177t-121.5 -58q-162 0 -162 235z" />
<glyph unicode="m" horiz-adv-x="1798" d="M111 221v649q0 233 161 234q96 0 154 -103q98 106 258 107q207 0 322 -152q74 82 149.5 117t175.5 35q168 0 266.5 -106.5t98.5 -317.5v-463q0 -235 -161 -235h-1q-84 0 -122 58t-38 177v365q0 123 -34.5 184t-112.5 61q-88 0 -125 -60t-37 -181v-369q0 -235 -161 -235 h-1q-162 0 -162 235v365q0 123 -33.5 184t-111.5 61q-88 0 -125 -60t-37 -181v-369q0 -235 -161 -235h-1q-162 0 -161 235z" />
<glyph unicode="n" horiz-adv-x="1206" d="M111 221v649q0 233 161 234q96 0 154 -103q53 59 121.5 84t163.5 25q190 0 291.5 -107.5t101.5 -318.5v-463q0 -235 -161 -235h-1q-162 0 -162 235v365q0 129 -37.5 189.5t-136.5 60.5q-92 0 -132 -61.5t-40 -184.5v-369q0 -235 -161 -235h-1q-162 0 -161 235z" />
<glyph unicode="o" horiz-adv-x="1187" d="M47 545q0 125 41 231.5t113.5 183t173 119.5t219.5 43t219 -43t173 -119.5t113 -183t40 -231.5q0 -127 -40 -232.5t-113 -182.5t-173 -120t-219 -43t-219.5 43t-173 120t-113.5 182.5t-41 232.5zM381 549q0 -129 60.5 -202t152.5 -73t152.5 74t60.5 201 q0 123 -61.5 196.5t-151.5 73.5t-151.5 -71.5t-61.5 -198.5z" />
<glyph unicode="p" horiz-adv-x="1232" d="M111 -215v1085q0 233 161 234q96 0 154 -103q100 111 266 111q100 0 190.5 -42t157 -117.5t105.5 -179t39 -228.5q0 -123 -40 -228.5t-107.5 -183.5t-158 -123t-190.5 -45q-145 0 -254 94v-274q0 -236 -162 -236t-161 236zM428 541q0 -129 60.5 -202t152.5 -73t152.5 74 t60.5 201q0 123 -61.5 196.5t-151.5 73.5t-151.5 -71.5t-61.5 -198.5z" />
<glyph unicode="q" horiz-adv-x="1232" d="M47 545q0 125 39 228.5t106.5 179t156.5 117.5t192 42q166 0 266 -111q59 102 154 103q84 0 121.5 -57.5t37.5 -176.5v-1085q0 -236 -159 -236q-162 0 -162 236v274q-109 -94 -256 -94q-102 0 -192.5 45t-158 123t-106.5 183.5t-39 228.5zM379 541q0 -127 60.5 -201 t152.5 -74t151.5 73t59.5 202q0 127 -60.5 198.5t-150.5 71.5q-92 0 -152.5 -73.5t-60.5 -196.5z" />
<glyph unicode="r" horiz-adv-x="778" d="M111 221v649q0 233 161 234q96 0 154 -103q102 109 219 109q68 0 116 -47t48 -113q0 -49 -24.5 -77.5t-63.5 -48t-88 -36t-98 -38.5q-35 -16 -54.5 -33t-30 -38.5t-13.5 -51t-3 -70.5v-336q0 -235 -161 -235h-1q-162 0 -161 235z" />
<glyph unicode="s" horiz-adv-x="890" d="M20 209q0 61 36 103t87 42q37 0 75 -14t75 -32.5t75 -33t74 -14.5q41 0 65.5 19.5t24.5 46.5q0 39 -44 61.5t-132 56.5q-74 31 -131 62t-96 69.5t-59.5 86t-20.5 112.5q0 72 30 135.5t83 110.5t126.5 74.5t164.5 27.5q84 0 153.5 -19.5t119.5 -51t77.5 -71.5t27.5 -83 q0 -57 -38.5 -96t-94.5 -39q-29 0 -60.5 12t-65 26.5t-67.5 27t-67 12.5q-35 0 -54 -16.5t-19 -39.5t15 -38t45 -29.5t71 -28.5t92 -37q135 -59 201.5 -130.5t66.5 -182.5q0 -78 -31.5 -144.5t-89 -116.5t-138.5 -79t-177 -29q-90 0 -164 19.5t-126 51.5t-81 76t-29 93z" />
<glyph unicode="t" horiz-adv-x="681" d="M-18 932q0 133 194 143v142q0 235 161 235h1q160 0 160 -235v-142h28q98 0 150.5 -39t52.5 -104q0 -139 -205 -139h-26v-572q0 -119 -38 -177t-122 -58q-162 0 -162 235v572h-12q-86 0 -134 37.5t-48 101.5z" />
<glyph unicode="u" horiz-adv-x="1185" d="M104 440v430q0 233 162 234q160 0 160 -234v-364q0 -115 34 -175.5t132 -60.5t132 60.5t34 175.5v364q0 233 162 234q84 0 121.5 -57.5t37.5 -176.5v-430q0 -233 -126 -353t-361 -120q-236 0 -362 120t-126 353z" />
<glyph unicode="v" horiz-adv-x="948" d="M-8 944q0 68 45 114t110 46q63 0 102.5 -39t63.5 -119l176 -561l175 582q41 137 151 137q68 0 110 -45t42 -117q0 -45 -25 -106l-272 -705q-29 -78 -68 -118t-117 -40q-82 0 -121.5 42t-72.5 126l-281 715q-18 49 -18 88z" />
<glyph unicode="w" horiz-adv-x="1550" d="M-8 944q0 68 45 114t110 46q121 0 166 -158l170 -590l138 592q35 145 149 146q127 0 164 -150l147 -579l170 602q18 66 57.5 101.5t94.5 35.5q68 0 109.5 -45t41.5 -117q0 -25 -7 -50.5t-17 -55.5l-248 -705q-29 -82 -71 -120t-113 -38q-76 0 -124 44t-71 124l-133 514 l-125 -524q-16 -72 -64.5 -115t-119.5 -43q-78 0 -120 39t-75 129l-256 715q-18 51 -18 88z" />
<glyph unicode="x" horiz-adv-x="1009" d="M-10 145q0 47 18.5 77t48.5 65l269 295l-226 229q-61 66 -61 131q0 31 12 60.5t32.5 52t48.5 36t58 13.5q74 0 134 -68l196 -227l180 221q29 35 65 54.5t66 19.5q68 0 117 -46t49 -112q0 -61 -71 -139l-213 -227l252 -285q31 -35 53 -70t22 -90q0 -59 -43 -105t-104 -46 q-45 0 -79 22.5t-69 63.5l-231 274l-229 -274q-35 -41 -67 -63.5t-73 -22.5q-61 0 -108 47t-47 114z" />
<glyph unicode="y" horiz-adv-x="985" d="M0 944q0 68 46 114t112 46q68 0 101.5 -40t62.5 -116l182 -487l198 514q27 66 60 97.5t82 31.5q74 0 117 -41t43 -113q0 -47 -27 -112l-492 -1168q-27 -61 -57.5 -96t-83.5 -35q-76 0 -118 42t-42 114q0 55 27 110l133 289l-326 760q-10 23 -14 46.5t-4 43.5z" />
<glyph unicode="z" horiz-adv-x="915" d="M-12 100q0 61 49 123l442 574h-278q-98 0 -150.5 40t-52.5 107q0 145 205 146h518q98 0 150.5 -16.5t52.5 -82.5q0 -57 -66 -141l-430 -551h320q98 0 150 -41t52 -111q0 -147 -205 -147h-587q-86 0 -128 19.5t-42 80.5z" />
<glyph unicode="{" horiz-adv-x="663" d="M61 522v193q51 4 81 18.5t45.5 34.5t19.5 44t4 46q0 109 -10.5 199t-10.5 182q0 88 25 146.5t72 93t113.5 48t150.5 13.5h43v-215h-37q-59 0 -83.5 -38t-24.5 -103q0 -59 8 -131t8 -168q0 -68 -11.5 -114t-34 -76.5t-57 -47t-83.5 -26.5v-5q47 -10 81.5 -27.5t58 -47 t35 -74.5t11.5 -113q0 -98 -8 -168.5t-8 -130.5q0 -66 22.5 -105.5t85.5 -39.5h37v-213h-43q-80 0 -146.5 12t-113.5 46t-74 92.5t-27 148.5q0 92 10.5 183t10.5 202q0 20 -4 44t-18.5 44t-45 34.5t-82.5 18.5z" />
<glyph unicode="|" horiz-adv-x="1024" d="M401 -184v1700h220v-1700h-220z" />
<glyph unicode="}" horiz-adv-x="663" d="M68 -90h36q63 0 86 40t23 105q0 70 -7 139.5t-7 159.5q0 68 11 114t34.5 75.5t58.5 46t82 26.5v5q-47 10 -83 27.5t-58.5 48t-33.5 76.5t-11 112q0 96 7 164.5t7 136.5q0 63 -24.5 101t-84.5 38h-36v215h43q82 0 148.5 -13.5t113.5 -48t72.5 -93t25.5 -146.5 q0 -92 -9 -182t-9 -197q0 -23 4 -47.5t19.5 -44.5t45 -35.5t82.5 -17.5v-193q-51 -4 -81.5 -18.5t-46 -34.5t-19.5 -45t-4 -45q0 -92 9 -184.5t9 -198.5q0 -90 -26.5 -148.5t-73.5 -92.5t-114 -46t-146 -12h-43v213z" />
<glyph unicode="~" d="M72 510q0 92 17 172t52 140.5t86.5 95t120.5 34.5q57 0 114.5 -20.5t109 -44t91 -44t62.5 -20.5q41 0 55.5 23.5t14.5 95.5h280q0 -203 -59.5 -321.5t-200.5 -118.5q-59 0 -111.5 20.5t-99.5 44t-87 44t-73 20.5q-49 0 -72.5 -28t-23.5 -93h-276z" />
<glyph unicode="&#xa1;" horiz-adv-x="606" d="M123 1319q0 74 53 126t127 52t126 -51t52 -127q0 -74 -52 -127t-126 -53q-37 0 -69.5 14t-57 39t-39 57.5t-14.5 69.5zM143 193v602q0 236 160 235q158 0 158 -235v-602q0 -236 -158 -236q-160 0 -160 236z" />
<glyph unicode="&#xa2;" horiz-adv-x="972" d="M47 569q0 113 33 211.5t93 174t145 123.5t188 63v88q0 113 82 112q47 0 63.5 -26.5t16.5 -85.5v-86q147 -16 221 -69.5t74 -135.5q0 -59 -37 -98t-97 -39q-23 0 -48 7t-53 16.5t-59.5 17.5t-66.5 8q-98 0 -160.5 -74t-62.5 -198q0 -127 62.5 -200t172.5 -73q35 0 67 7 t59.5 16.5t51 17.5t44.5 8q55 0 90 -40t35 -99q0 -72 -76 -130t-217 -77v-217q0 -113 -80 -113q-47 0 -64.5 26t-17.5 85v217q-104 12 -188.5 57.5t-144.5 119t-93 172t-33 214.5z" />
<glyph unicode="&#xa3;" horiz-adv-x="1265" d="M39 729q0 72 54 113t159 41h18q-35 104 -34 188q0 90 36.5 168t104 135.5t161 90t205.5 32.5q125 0 225.5 -33.5t171 -88t109.5 -121t39 -132.5t-42 -111.5t-101 -45.5q-41 0 -71 20.5t-58 54.5q-29 37 -54.5 67t-55 50.5t-65.5 31.5t-85 11q-80 0 -132.5 -46t-52.5 -107 q0 -59 37 -164h117q236 0 236 -154t-236 -154h-74v-49q0 -106 -88 -219h494q236 0 235 -153q0 -154 -235 -154h-576q-74 0 -131 5t-97 22.5t-60.5 49.5t-20.5 87q0 35 10.5 63.5t26.5 55t36.5 53t41.5 57.5q47 70 47 170v12h-60q-236 0 -235 154z" />
<glyph unicode="&#xa4;" horiz-adv-x="1261" d="M43 1133l166 172l174 -191q96 72 248 72q74 0 137 -17.5t115 -50.5l170 187l166 -172l-193 -168q29 -35 49.5 -88.5t20.5 -149.5q0 -94 -26 -152.5t-54 -95.5l188 -174l-164 -164l-159 197q-47 -39 -116 -59.5t-134 -20.5q-63 0 -133 19.5t-117 60.5l-160 -197l-164 164 l189 174q-29 37 -54.5 95.5t-25.5 152.5q0 96 24.5 149.5t47.5 88.5zM438 727q0 -57 18.5 -98t46 -67.5t62.5 -39t66 -12.5t65.5 12.5t62 39t46 67.5t18.5 98q0 51 -17.5 90t-45 65.5t-61 39t-68.5 12.5t-69 -12.5t-61.5 -39t-45 -65.5t-17.5 -90z" />
<glyph unicode="&#xa5;" horiz-adv-x="1056" d="M-25 1352q0 27 11.5 53.5t31 47t46 32.5t55.5 12q92 0 170 -127l258 -418l252 422q72 121 162 121q59 0 99 -43t40 -96q0 -51 -22.5 -89t-53.5 -83l-262 -381h156q57 0 88.5 -20.5t31.5 -53.5q0 -37 -30.5 -58.5t-89.5 -21.5h-230v-434q0 -121 -37 -177t-114 -56 q-78 0 -115 56t-37 177v434h-229q-57 0 -89 21.5t-32 56.5q0 76 121 76h153l-260 377q-31 45 -52.5 82.5t-21.5 89.5z" />
<glyph unicode="&#xa6;" horiz-adv-x="1024" d="M401 -184v716h220v-716h-220zM401 799v717h220v-717h-220z" />
<glyph unicode="&#xa7;" horiz-adv-x="1071" d="M20 594q0 94 49.5 178t137.5 131q-100 98 -101 230q0 80 30 146.5t84 114.5t131 75.5t173 27.5q104 0 187.5 -26.5t139.5 -69.5t87 -98.5t31 -114.5q0 -63 -39 -101t-92 -38q-47 0 -73 26.5t-54 75.5q-61 109 -179 109q-63 0 -100 -30t-37 -73q0 -31 18.5 -53.5t54.5 -45 t88 -48t122 -58.5q92 -45 163.5 -87t122 -90t77 -106.5t26.5 -133.5q0 -94 -47 -176.5t-137 -135.5q53 -53 76.5 -108.5t23.5 -126.5q0 -78 -30.5 -143.5t-87 -113.5t-136.5 -75t-180 -27q-102 0 -184 26t-140.5 69t-90.5 99t-32 116q0 61 39 100t92 39q47 0 74 -27.5 t55 -75.5q61 -106 187 -106q70 0 106.5 28.5t36.5 73.5q0 31 -18.5 53.5t-53 44t-87 46t-121.5 59.5q-92 45 -164 87t-123 90t-78 106.5t-27 136.5zM301 631q0 -35 25.5 -64.5t76 -60.5t124 -67t171.5 -81q90 47 90 140q0 35 -25.5 64.5t-75.5 60t-125 66.5t-173 81 q-88 -55 -88 -139z" />
<glyph unicode="&#xa8;" horiz-adv-x="1024" d="M193 1376q0 76 38.5 121t104.5 45t104.5 -44t38.5 -122t-39 -121t-104 -43q-66 0 -104.5 44t-38.5 120zM545 1376q0 76 39 121t104 45q66 0 104.5 -44t38.5 -122t-38.5 -121t-104.5 -43t-104.5 44t-38.5 120z" />
<glyph unicode="&#xa9;" horiz-adv-x="1705" d="M111 733q0 147 55 282.5t164 246.5q104 106 236 161.5t286 55.5t288 -55.5t242 -163.5q104 -104 159.5 -239.5t55.5 -287.5q0 -154 -55 -285t-160 -235q-111 -109 -247 -166t-283 -57t-280.5 56t-241.5 165q-106 106 -162.5 240.5t-56.5 281.5zM264 735q0 -119 44 -224 t130 -192q86 -86 192.5 -130t223.5 -44t224.5 45.5t195.5 131.5q170 166 170 413q0 121 -44 226.5t-128 189.5q-86 86 -190.5 130t-227.5 44q-248 0 -416 -172q-86 -86 -130 -193.5t-44 -224.5zM438 731q0 104 34 190.5t92.5 146.5t136 93t167.5 33q57 0 106.5 -12.5 t83.5 -33t53 -45t19 -50.5q0 -35 -24.5 -62.5t-58.5 -27.5q-35 0 -79 17t-98 17q-96 0 -155.5 -71.5t-59.5 -198.5q0 -123 60.5 -193.5t161.5 -70.5q31 0 57.5 7t49 15.5t41.5 15.5t38 7q29 0 54.5 -26.5t25.5 -61.5q0 -59 -76 -105.5t-201 -46.5q-94 0 -173 33t-135 93.5 t-88 146.5t-32 190z" />
<glyph unicode="&#xaa;" horiz-adv-x="925" d="M35 1081q0 86 29.5 159t82 127t120 84t145.5 30q123 0 194 -80q41 72 115 72q119 0 119 -164v-453q0 -166 -119 -166q-80 0 -115 80q-37 -43 -89 -64.5t-114 -21.5q-74 0 -141 28.5t-117.5 81t-80 126t-29.5 161.5zM287 1085q0 -86 45 -136t110 -50q68 0 112 50t44 136 q0 82 -45 131.5t-111 49.5t-110.5 -48.5t-44.5 -132.5z" />
<glyph unicode="&#xab;" horiz-adv-x="1034" d="M47 539q0 47 12.5 82.5t35 64.5t57 56.5t77.5 60.5q63 47 109.5 74.5t85.5 27.5q37 0 59.5 -29.5t22.5 -89.5q0 -51 -19.5 -72.5t-48.5 -43.5l-176 -131l176 -129q31 -23 49.5 -44.5t18.5 -72.5q0 -59 -22.5 -89t-61.5 -30q-41 0 -85 27.5t-108 74.5q-43 31 -76.5 57.5 t-57 56.5t-36 64.5t-12.5 84.5zM522 539q0 47 12.5 82.5t35 64.5t57.5 56.5t78 60.5q63 47 109 74.5t85 27.5q37 0 58.5 -29.5t21.5 -89.5q0 -51 -18.5 -72.5t-47.5 -43.5l-176 -131l176 -129q31 -23 48.5 -44.5t17.5 -72.5q0 -59 -22.5 -89t-61.5 -30q-41 0 -84 27.5 t-106 74.5q-43 31 -77 57.5t-57.5 56.5t-36 64.5t-12.5 84.5z" />
<glyph unicode="&#xac;" d="M68 786v277h1011v-664h-280v387h-731z" />
<glyph unicode="&#xad;" horiz-adv-x="876" d="M70 569q0 66 42 103t119 37h416q78 0 119 -38t41 -104q0 -139 -162 -139h-416q-78 0 -118.5 38t-40.5 103z" />
<glyph unicode="&#xae;" horiz-adv-x="929" d="M80 1100q0 102 55 200q53 88 139.5 137.5t190.5 49.5q78 0 149.5 -30t126.5 -87q53 -53 81 -122.5t28 -147.5t-28.5 -148.5t-84.5 -124.5q-57 -55 -127.5 -83.5t-144.5 -28.5q-78 0 -148.5 30.5t-126.5 85.5q-53 55 -81.5 125t-28.5 144zM160 1102q0 -125 90 -215 q88 -92 215 -92q59 0 114.5 23.5t100.5 66.5q92 86 92 211q0 127 -88 219q-90 92 -219 92q-125 0 -213 -88q-45 -43 -68.5 -100.5t-23.5 -116.5zM313 963v286q0 35 12.5 50.5t51.5 15.5h74q78 0 118.5 -35t40.5 -94q0 -45 -26.5 -75t-73.5 -36l76 -84q12 -16 19 -29.5 t7 -25.5q0 -16 -12 -30.5t-33 -14.5q-25 0 -49 35l-112 139v-102q0 -68 -46 -68q-47 0 -47 68zM406 1126h45q29 0 45 14.5t16 39.5q0 23 -16.5 36t-44.5 13h-45v-103z" />
<glyph unicode="&#xaf;" horiz-adv-x="1024" d="M182 1376q0 57 37 93t96 36h394q61 0 97 -33.5t36 -93.5q0 -57 -37 -93t-96 -36h-394q-61 0 -97 34t-36 93z" />
<glyph unicode="&#xb0;" horiz-adv-x="673" d="M35 1159q0 63 23.5 118.5t64.5 97.5t96.5 65.5t118.5 23.5t118.5 -24.5t96.5 -65.5t64.5 -96t23.5 -119q0 -61 -23.5 -116.5t-65.5 -97.5t-97.5 -65.5t-118.5 -23.5t-117.5 23.5t-95.5 64.5t-64.5 96.5t-23.5 118.5zM162 1161q0 -74 51 -125t125 -51q37 0 68.5 14.5 t55 39t37 56t13.5 66.5q0 72 -51 123t-123 51q-37 0 -68.5 -13t-55.5 -36.5t-38 -55.5t-14 -69z" />
<glyph unicode="&#xb1;" d="M66 0v264h1013v-264h-1013zM66 659v277h364v326h285v-326h364v-277h-364v-331h-285v331h-364z" />
<glyph unicode="&#xb2;" horiz-adv-x="706" d="M6 674q0 37 46 85t128 130q117 117 180.5 193.5t63.5 127.5q0 39 -24.5 61.5t-59.5 22.5q-66 0 -102 -90q-20 -51 -42 -75.5t-67 -24.5q-47 0 -76.5 27.5t-29.5 74.5q0 35 16 79t51 81q98 115 258 115q70 0 127 -20.5t97 -55.5t61.5 -82t21.5 -102q0 -104 -87 -209 t-244 -246h200q156 0 156 -92t-156 -92h-387q-131 0 -131 92z" />
<glyph unicode="&#xb3;" horiz-adv-x="733" d="M2 799q0 41 26.5 67.5t69.5 26.5q33 0 54.5 -14.5t44.5 -40.5q31 -39 59.5 -68t83.5 -29q47 0 81 32t34 81q0 53 -35 72.5t-105 29.5q-47 8 -68.5 28t-21.5 60q0 41 21.5 59.5t68.5 29.5q102 20 103 90q0 35 -21.5 54t-58.5 19q-33 0 -55.5 -14t-44.5 -33 q-31 -27 -54.5 -44t-62.5 -17q-35 0 -62.5 23.5t-27.5 60.5t24.5 73.5t67.5 66.5t99.5 49.5t119.5 19.5t115.5 -19.5t91.5 -51.5t60.5 -76t21.5 -93q0 -55 -28 -98t-83 -80q80 -39 120 -93.5t40 -131.5q0 -59 -25.5 -110.5t-70.5 -89.5t-108.5 -60.5t-139.5 -22.5 q-59 0 -113.5 17.5t-101.5 50.5q-59 41 -89 88t-30 88z" />
<glyph unicode="&#xb4;" horiz-adv-x="1024" d="M346 1294q0 43 35 90l149 205q47 66 117 66q55 0 92 -36t37 -87q0 -55 -53 -115l-156 -172q-57 -63 -110 -63q-51 0 -81 31.5t-30 80.5z" />
<glyph unicode="&#xb5;" horiz-adv-x="1253" d="M123 -389v1413h352v-555q0 -102 37 -156.5t113 -54.5q31 0 58.5 12.5t47 34t31.5 49t12 58.5v612h354v-676q0 -111 2.5 -198t6.5 -150h-306l-16 141h-6q-23 -57 -86.5 -106t-165.5 -49q-72 0 -123 45v-420h-311z" />
<glyph unicode="&#xb6;" horiz-adv-x="1071" d="M27 1100q0 88 27.5 160.5t74.5 125t109.5 82t134.5 29.5q119 0 186 -78q43 72 107 72q113 0 112 -162v-1536q0 -164 -112 -164q-113 0 -113 164v969q-74 -66 -178 -66q-72 0 -135.5 31t-110.5 85t-74.5 128t-27.5 160zM258 1098q0 -90 42 -142.5t110 -52.5q63 0 104 52.5 t41 142.5q0 88 -43 138t-102 50q-66 0 -109 -51t-43 -137zM817 -207v1536q0 162 113 162t112 -162v-1536q0 -164 -112 -164q-113 0 -113 164z" />
<glyph unicode="&#xb7;" horiz-adv-x="663" d="M145 727q0 78 54.5 132t132.5 54t132 -54t54 -132q0 -39 -14.5 -72.5t-40 -58.5t-59 -39t-72.5 -14q-78 0 -132.5 53t-54.5 131z" />
<glyph unicode="&#xb8;" horiz-adv-x="1024" d="M152 -246q0 43 30.5 69.5t87.5 26.5q35 0 67 -5t64 -5q94 0 95 64q0 18 -12.5 33.5t-26 29l-25.5 25.5t-12 26q0 18 29 24.5t88 6.5q61 0 108 -18.5t79 -49t48 -68.5t16 -75q0 -102 -97 -170.5t-269 -68.5q-131 0 -200.5 43t-69.5 112z" />
<glyph unicode="&#xb9;" horiz-adv-x="485" d="M-18 1364q0 92 155 92h111q70 0 97.5 -33.5t27.5 -107.5v-600q0 -141 -113 -142q-111 0 -110 142v557h-21q-72 0 -109.5 22.5t-37.5 69.5z" />
<glyph unicode="&#xba;" horiz-adv-x="890" d="M35 1081q0 88 30.5 163t85 128t130 84t165.5 31t165 -31t129.5 -84t84 -128t29.5 -163t-29.5 -161.5t-84 -128t-129 -84t-165.5 -29.5q-90 0 -165.5 29.5t-130 84t-85 128t-30.5 161.5zM287 1085q0 -92 45 -142t114 -50q70 0 115 51t45 141q0 86 -47 137.5t-113 51.5 q-68 0 -113.5 -50.5t-45.5 -138.5z" />
<glyph unicode="&#xbb;" horiz-adv-x="1034" d="M51 293q0 51 19.5 72.5t48.5 44.5l176 131l-176 129q-31 23 -49.5 44t-18.5 72q0 59 22.5 89t61.5 30q41 0 85 -27.5t108 -74.5q43 -31 76.5 -58.5t57 -56.5t36 -64.5t12.5 -82.5t-12.5 -83t-36 -66t-57 -57.5t-76.5 -60.5q-63 -47 -109.5 -73.5t-85.5 -26.5 q-37 0 -59.5 29.5t-22.5 89.5zM526 293q0 51 19.5 72.5t48.5 44.5l174 131l-174 129q-31 23 -49.5 44t-18.5 72q0 59 22.5 89t61.5 30t83 -27.5t108 -74.5q43 -31 76.5 -58.5t57 -56.5t37 -64.5t13.5 -82.5t-12 -83t-37 -66t-58.5 -57.5t-76.5 -60.5q-63 -47 -109.5 -73.5 t-85.5 -26.5q-37 0 -58.5 29.5t-21.5 89.5z" />
<glyph unicode="&#xbc;" horiz-adv-x="1609" d="M-16 1370q0 86 147 86h105q66 0 92 -30.5t26 -100.5v-561q0 -131 -104 -131q-106 0 -107 131v520h-20q-139 0 -139 86zM150 84q0 49 32 106l676 1180q33 55 64.5 85t78.5 30q49 0 83 -32t34 -83q0 -23 -9 -49.5t-26 -58.5l-673 -1180q-68 -117 -144 -117q-49 0 -82.5 34 t-33.5 85zM809 248q0 33 15.5 56.5t33.5 49.5l272 385q33 47 69 67.5t87 20.5q72 0 118 -46t46 -142v-299q10 0 17.5 1t13.5 1q53 0 83.5 -22.5t30.5 -57.5q0 -86 -127 -86h-18v-86q0 -49 -27.5 -74.5t-74.5 -25.5q-88 0 -88 104v82h-324q-127 0 -127 72zM1044 340h216v311z " />
<glyph unicode="&#xbd;" horiz-adv-x="1480" d="M-16 1370q0 86 147 86h105q66 0 92 -30.5t26 -100.5v-561q0 -131 -104 -131q-106 0 -107 131v520h-20q-139 0 -139 86zM150 84q0 49 32 106l676 1180q33 55 64.5 85t78.5 30q49 0 83 -32t34 -83q0 -45 -35 -108l-673 -1180q-68 -117 -144 -117q-49 0 -82.5 34t-33.5 85z M811 86q0 35 44 80t122 121q111 111 171 181.5t60 119.5q0 35 -22.5 56.5t-55.5 21.5q-66 0 -100 -84q-20 -47 -39.5 -71t-62.5 -24q-45 0 -74 26t-29 69q0 33 16.5 74.5t49.5 76.5q94 104 246 105q135 0 215 -69t80 -173q0 -98 -84 -195.5t-234 -228.5h191q150 0 149 -86 q0 -86 -149 -86h-369q-125 0 -125 86z" />
<glyph unicode="&#xbe;" horiz-adv-x="1845" d="M2 844q0 39 25.5 63.5t66.5 24.5q31 0 50.5 -13.5t41.5 -39.5q14 -16 27.5 -33t29 -29t35 -19t46.5 -7q47 0 78.5 29.5t31.5 74.5q0 49 -33.5 67.5t-99.5 28.5q-47 6 -66.5 23.5t-19.5 58.5q0 37 19.5 54.5t66.5 27.5q98 20 98 84q0 31 -21.5 50.5t-55.5 19.5 q-31 0 -51.5 -13.5t-43.5 -31.5q-29 -25 -51 -41.5t-59 -16.5q-35 0 -61.5 21.5t-26.5 56.5q0 33 23.5 67.5t64.5 63.5t94 46.5t115 17.5q61 0 111 -17.5t87 -47.5t57.5 -70.5t20.5 -86.5q0 -99 -104 -167q152 -72 151 -209q0 -55 -24.5 -103.5t-67.5 -84.5t-103.5 -56.5 t-131.5 -20.5q-113 0 -207 64q-55 39 -84 82t-29 82zM385 84q0 49 33 106l676 1180q33 55 64.5 85t78.5 30q49 0 83 -32t34 -83q0 -45 -35 -108l-674 -1180q-68 -117 -143 -117q-49 0 -83 34t-34 85zM1044 248q0 33 15.5 56.5t34.5 49.5l272 385q33 47 68.5 67.5t87.5 20.5 q72 0 118 -46t46 -142v-299q10 0 17 1t13 1q53 0 84 -22.5t31 -57.5q0 -86 -127 -86h-18v-86q0 -49 -28 -74.5t-75 -25.5q-88 0 -88 104v82h-324q-127 0 -127 72zM1280 340h215v311z" />
<glyph unicode="&#xbf;" horiz-adv-x="1042" d="M55 414q0 82 24.5 154.5t72 129t113 94t149.5 54.5v12q0 94 44 144.5t115 50.5q72 0 114 -48.5t42 -140.5v-127q0 -55 -14.5 -85.5t-55.5 -47.5q-33 -14 -69.5 -20t-71.5 -21q-117 -47 -117 -155q0 -63 43 -103.5t109 -40.5q51 0 94 25.5t88 72.5q41 45 77 78t89 33 q57 0 94 -42t37 -107q0 -63 -35.5 -128t-99 -118t-154 -87t-196.5 -34q-111 0 -201 37t-154.5 99.5t-100.5 145.5t-36 175zM393 1313q0 74 52.5 126t125.5 52q74 0 126.5 -51t52.5 -127q0 -74 -52.5 -127t-126.5 -53t-126 53t-52 127z" />
<glyph unicode="&#xc0;" horiz-adv-x="1280" d="M0 137q0 25 3 49.5t13 46.5l379 1029q41 111 101.5 163t152.5 52q174 0 244 -193l369 -1046q23 -63 22 -105q0 -72 -47 -112.5t-117 -40.5q-125 0 -174 159l-41 135h-538l-50 -147q-49 -147 -159 -147q-70 0 -114 44t-44 113zM369 1898q0 55 36.5 91t92.5 36 q70 0 116 -65l150 -205q35 -47 35 -90q0 -51 -31 -82t-80 -31q-53 0 -110 64l-156 172q-53 59 -53 110zM461 580h348l-168 540z" />
<glyph unicode="&#xc1;" horiz-adv-x="1280" d="M0 137q0 25 3 49.5t13 46.5l379 1029q41 111 101.5 163t152.5 52q174 0 244 -193l369 -1046q23 -63 22 -105q0 -72 -47 -112.5t-117 -40.5q-125 0 -174 159l-41 135h-538l-50 -147q-49 -147 -159 -147q-70 0 -114 44t-44 113zM461 580h348l-168 540zM473 1665q0 43 35 90 l149 205q47 66 117 65q55 0 92 -35.5t37 -86.5q0 -55 -53 -115l-156 -172q-57 -63 -110 -64q-51 0 -81 32t-30 81z" />
<glyph unicode="&#xc2;" horiz-adv-x="1280" d="M0 137q0 25 3 49.5t13 46.5l379 1029q41 111 101.5 163t152.5 52q174 0 244 -193l369 -1046q23 -63 22 -105q0 -72 -47 -112.5t-117 -40.5q-125 0 -174 159l-41 135h-538l-50 -147q-49 -147 -159 -147q-70 0 -114 44t-44 113zM270 1673q0 37 15.5 61.5t46.5 49.5l223 174 q43 33 84 33t84 -33l223 -174q31 -25 46.5 -50.5t15.5 -60.5q0 -47 -28 -75.5t-69 -28.5q-43 0 -94 30l-178 109l-178 -109q-53 -31 -94 -30q-41 0 -69 28.5t-28 75.5zM461 580h348l-168 540z" />
<glyph unicode="&#xc3;" horiz-adv-x="1280" d="M0 137q0 25 3 49.5t13 46.5l379 1029q41 111 101.5 163t152.5 52q174 0 244 -193l369 -1046q23 -63 22 -105q0 -72 -47 -112.5t-117 -40.5q-125 0 -174 159l-41 135h-538l-50 -147q-49 -147 -159 -147q-70 0 -114 44t-44 113zM348 1712q0 78 50.5 128t121.5 50 q51 0 96.5 -19.5t92.5 -19.5q45 0 71.5 18.5t59.5 18.5q41 0 65.5 -29.5t24.5 -80.5q0 -74 -49 -126.5t-123 -52.5q-51 0 -97.5 19.5t-93.5 19.5q-45 0 -71.5 -17t-57.5 -17q-41 0 -65.5 27.5t-24.5 80.5zM461 580h348l-168 540z" />
<glyph unicode="&#xc4;" horiz-adv-x="1280" d="M0 137q0 25 3 49.5t13 46.5l379 1029q41 111 101.5 163t152.5 52q174 0 244 -193l369 -1046q23 -63 22 -105q0 -72 -47 -112.5t-117 -40.5q-125 0 -174 159l-41 135h-538l-50 -147q-49 -147 -159 -147q-70 0 -114 44t-44 113zM320 1747q0 76 38.5 121t104.5 45t104.5 -44 t38.5 -122t-39 -121t-104 -43q-66 0 -104.5 44t-38.5 120zM461 580h348l-168 540zM672 1747q0 76 39 121t104 45q66 0 104.5 -44t38.5 -122t-38.5 -121t-104.5 -43t-104.5 44t-38.5 120z" />
<glyph unicode="&#xc5;" horiz-adv-x="1280" d="M0 137q0 25 3 49.5t13 46.5l379 1029q41 111 101.5 163t152.5 52q174 0 244 -193l369 -1046q23 -63 22 -105q0 -72 -47 -112.5t-117 -40.5q-125 0 -174 159l-41 135h-538l-50 -147q-49 -147 -159 -147q-70 0 -114 44t-44 113zM422 1751q0 45 17.5 84t47 68.5t69.5 47 t83 17.5q45 0 84 -17.5t68.5 -47t47 -68.5t17.5 -84t-17.5 -84t-47 -68.5t-68.5 -47t-84 -17.5t-84 17.5t-68.5 47t-47 68.5t-17.5 84zM461 580h348l-168 540zM557 1751q0 -35 23.5 -57.5t58.5 -22.5t57.5 22.5t22.5 57.5t-22.5 57.5t-57.5 22.5t-58.5 -22.5t-23.5 -57.5z " />
<glyph unicode="&#xc6;" horiz-adv-x="1720" d="M-33 139q0 61 27 109l551 985q37 66 69.5 108.5t68.5 68.5t78 36t95 10h561q236 0 236 -156q0 -154 -236 -153h-270v-260h235q233 0 234 -154q0 -154 -234 -153h-235v-273h280q236 0 236 -153q0 -154 -236 -154h-366q-66 0 -110 10t-70.5 35t-36.5 65t-10 99v72h-469 l-82 -164q-35 -66 -71 -100.5t-91 -34.5q-66 0 -110 44t-44 113zM522 580h314v606z" />
<glyph unicode="&#xc7;" horiz-adv-x="1232" d="M57 727q0 174 55.5 316.5t152.5 244t227.5 155.5t281.5 54q96 0 177 -20.5t138.5 -53t89 -74.5t31.5 -85q0 -59 -41 -104.5t-100 -45.5q-29 0 -60.5 9.5t-68.5 19.5t-78 19t-86 9q-80 0 -145.5 -31.5t-113.5 -90t-73.5 -142.5t-25.5 -188q0 -205 100 -322.5t268 -117.5 q51 0 95.5 12t82 25.5t70.5 25.5t62 12q51 0 92 -43t41 -102q0 -74 -76 -138.5t-207 -93.5q59 -63 60 -139q0 -102 -97.5 -170.5t-269.5 -68.5q-131 0 -200.5 43t-69.5 112q0 43 30.5 69.5t87.5 26.5q35 0 67 -5t64 -5q94 0 95 64q0 18 -10.5 32.5t-22.5 26.5 q-139 14 -254 74.5t-197 159t-127 232.5t-45 298z" />
<glyph unicode="&#xc8;" horiz-adv-x="1034" d="M129 209v1014q0 61 10.5 105t36 73t69.5 42t113 13h373q236 0 236 -156q0 -154 -236 -153h-270v-260h233q236 0 236 -154t-236 -153h-233v-273h280q236 0 236 -153q0 -154 -236 -154h-387q-66 0 -109.5 10t-69 35t-36 65t-10.5 99zM246 1898q0 55 36.5 91t92.5 36 q70 0 116 -65l150 -205q35 -47 35 -90q0 -51 -31 -82t-80 -31q-53 0 -110 64l-156 172q-53 59 -53 110z" />
<glyph unicode="&#xc9;" horiz-adv-x="1034" d="M129 209v1014q0 61 10.5 105t36 73t69.5 42t113 13h373q236 0 236 -156q0 -154 -236 -153h-270v-260h233q236 0 236 -154t-236 -153h-233v-273h280q236 0 236 -153q0 -154 -236 -154h-387q-66 0 -109.5 10t-69 35t-36 65t-10.5 99zM350 1665q0 43 35 90l149 205 q47 66 117 65q55 0 92 -35.5t37 -86.5q0 -55 -53 -115l-156 -172q-57 -63 -110 -64q-51 0 -81 32t-30 81z" />
<glyph unicode="&#xca;" horiz-adv-x="1034" d="M129 209v1014q0 61 10.5 105t36 73t69.5 42t113 13h373q236 0 236 -156q0 -154 -236 -153h-270v-260h233q236 0 236 -154t-236 -153h-233v-273h280q236 0 236 -153q0 -154 -236 -154h-387q-66 0 -109.5 10t-69 35t-36 65t-10.5 99zM147 1673q0 37 15.5 61.5t46.5 49.5 l223 174q43 33 84 33t84 -33l223 -174q31 -25 46.5 -50.5t15.5 -60.5q0 -47 -28 -75.5t-69 -28.5q-43 0 -94 30l-178 109l-178 -109q-53 -31 -94 -30q-41 0 -69 28.5t-28 75.5z" />
<glyph unicode="&#xcb;" horiz-adv-x="1034" d="M129 209v1014q0 61 10.5 105t36 73t69.5 42t113 13h373q236 0 236 -156q0 -154 -236 -153h-270v-260h233q236 0 236 -154t-236 -153h-233v-273h280q236 0 236 -153q0 -154 -236 -154h-387q-66 0 -109.5 10t-69 35t-36 65t-10.5 99zM197 1747q0 76 38.5 121t104.5 45 t104.5 -44t38.5 -122t-39 -121t-104 -43q-66 0 -104.5 44t-38.5 120zM549 1747q0 76 39 121t104 45q66 0 104.5 -44t38.5 -122t-38.5 -121t-104.5 -43t-104.5 44t-38.5 120z" />
<glyph unicode="&#xcc;" horiz-adv-x="606" d="M35 1898q0 55 36.5 91t92.5 36q70 0 116 -65l150 -205q35 -47 35 -90q0 -51 -31 -82t-80 -31q-53 0 -110 64l-156 172q-53 59 -53 110zM137 217v1022q0 236 166 236t166 -236v-1022q0 -236 -166 -235q-166 0 -166 235z" />
<glyph unicode="&#xcd;" horiz-adv-x="606" d="M137 217v1022q0 236 166 236t166 -236v-1022q0 -236 -166 -235q-166 0 -166 235zM139 1665q0 43 35 90l149 205q47 66 117 65q55 0 92 -35.5t37 -86.5q0 -55 -53 -115l-156 -172q-57 -63 -110 -64q-51 0 -81 32t-30 81z" />
<glyph unicode="&#xce;" horiz-adv-x="606" d="M-64 1673q0 37 15.5 61.5t46.5 49.5l223 174q43 33 84 33t84 -33l223 -174q31 -25 46.5 -50.5t15.5 -60.5q0 -47 -28 -75.5t-69 -28.5q-43 0 -94 30l-178 109l-178 -109q-53 -31 -94 -30q-41 0 -69 28.5t-28 75.5zM137 217v1022q0 236 166 236t166 -236v-1022 q0 -236 -166 -235q-166 0 -166 235z" />
<glyph unicode="&#xcf;" horiz-adv-x="606" d="M-14 1747q0 76 38.5 121t104.5 45t104.5 -44t38.5 -122t-39 -121t-104 -43q-66 0 -104.5 44t-38.5 120zM137 217v1022q0 236 166 236t166 -236v-1022q0 -236 -166 -235q-166 0 -166 235zM338 1747q0 76 39 121t104 45q66 0 104.5 -44t38.5 -122t-38.5 -121t-104.5 -43 t-104.5 44t-38.5 120z" />
<glyph unicode="&#xd0;" horiz-adv-x="1521" d="M27 729q0 117 161 117h35v377q0 61 10.5 105t36 73t70.5 42t115 13h266q135 0 240.5 -24.5t191.5 -77.5q143 -92 227 -253t84 -358q0 -170 -49 -307t-141 -234.5t-224 -149.5t-298 -52h-301q-66 0 -110 10t-70.5 35t-37 65t-10.5 99v399h-37q-78 0 -118.5 33t-40.5 88z M555 307h152q397 0 397 438q0 401 -402 402h-147v-301h121q78 0 119 -33t41 -86q0 -117 -162 -117h-119v-303z" />
<glyph unicode="&#xd1;" horiz-adv-x="1531" d="M129 217v1036q0 111 37 166.5t117 55.5q55 0 95 -27t81 -80l612 -811v682q0 236 166 236t166 -236v-1059q0 -104 -36 -155.5t-116 -51.5q-53 0 -98 29t-92 92l-600 793v-670q0 -236 -166 -235q-166 0 -166 235zM489 1712q0 78 50.5 128t121.5 50q51 0 96.5 -19.5 t92.5 -19.5q45 0 71.5 18.5t59.5 18.5q41 0 65.5 -29.5t24.5 -80.5q0 -74 -49 -126.5t-123 -52.5q-51 0 -97.5 19.5t-93.5 19.5q-45 0 -71.5 -17t-57.5 -17q-41 0 -65.5 27.5t-24.5 80.5z" />
<glyph unicode="&#xd2;" horiz-adv-x="1546" d="M57 727q0 174 52.5 315.5t146.5 242.5t225 156.5t291 55.5t291 -55.5t226 -156.5t147.5 -242.5t52.5 -315.5q0 -172 -51.5 -314.5t-145.5 -243.5t-226 -156.5t-294 -55.5t-294 55.5t-225 156.5t-144.5 243.5t-51.5 314.5zM418 723q0 -104 25.5 -187t72.5 -141.5 t112.5 -89.5t143.5 -31t143.5 31t112.5 89.5t72.5 141t25.5 187.5q0 109 -25.5 193.5t-72.5 144t-111.5 90.5t-144.5 31t-144.5 -31t-111.5 -90.5t-72.5 -144t-25.5 -193.5zM502 1898q0 55 36.5 91t92.5 36q70 0 116 -65l150 -205q35 -47 35 -90q0 -51 -31 -82t-80 -31 q-53 0 -110 64l-156 172q-53 59 -53 110z" />
<glyph unicode="&#xd3;" horiz-adv-x="1546" d="M57 727q0 174 52.5 315.5t146.5 242.5t225 156.5t291 55.5t291 -55.5t226 -156.5t147.5 -242.5t52.5 -315.5q0 -172 -51.5 -314.5t-145.5 -243.5t-226 -156.5t-294 -55.5t-294 55.5t-225 156.5t-144.5 243.5t-51.5 314.5zM418 723q0 -104 25.5 -187t72.5 -141.5 t112.5 -89.5t143.5 -31t143.5 31t112.5 89.5t72.5 141t25.5 187.5q0 109 -25.5 193.5t-72.5 144t-111.5 90.5t-144.5 31t-144.5 -31t-111.5 -90.5t-72.5 -144t-25.5 -193.5zM606 1665q0 43 35 90l149 205q47 66 117 65q55 0 92 -35.5t37 -86.5q0 -55 -53 -115l-156 -172 q-57 -63 -110 -64q-51 0 -81 32t-30 81z" />
<glyph unicode="&#xd4;" horiz-adv-x="1546" d="M57 727q0 174 52.5 315.5t146.5 242.5t225 156.5t291 55.5t291 -55.5t226 -156.5t147.5 -242.5t52.5 -315.5q0 -172 -51.5 -314.5t-145.5 -243.5t-226 -156.5t-294 -55.5t-294 55.5t-225 156.5t-144.5 243.5t-51.5 314.5zM403 1673q0 37 15.5 61.5t46.5 49.5l223 174 q43 33 84 33t84 -33l223 -174q31 -25 46.5 -50.5t15.5 -60.5q0 -47 -28 -75.5t-69 -28.5q-43 0 -94 30l-178 109l-178 -109q-53 -31 -94 -30q-41 0 -69 28.5t-28 75.5zM418 723q0 -104 25.5 -187t72.5 -141.5t112.5 -89.5t143.5 -31t143.5 31t112.5 89.5t72.5 141 t25.5 187.5q0 109 -25.5 193.5t-72.5 144t-111.5 90.5t-144.5 31t-144.5 -31t-111.5 -90.5t-72.5 -144t-25.5 -193.5z" />
<glyph unicode="&#xd5;" horiz-adv-x="1546" d="M57 727q0 174 52.5 315.5t146.5 242.5t225 156.5t291 55.5t291 -55.5t226 -156.5t147.5 -242.5t52.5 -315.5q0 -172 -51.5 -314.5t-145.5 -243.5t-226 -156.5t-294 -55.5t-294 55.5t-225 156.5t-144.5 243.5t-51.5 314.5zM418 723q0 -104 25.5 -187t72.5 -141.5 t112.5 -89.5t143.5 -31t143.5 31t112.5 89.5t72.5 141t25.5 187.5q0 109 -25.5 193.5t-72.5 144t-111.5 90.5t-144.5 31t-144.5 -31t-111.5 -90.5t-72.5 -144t-25.5 -193.5zM481 1712q0 78 50.5 128t121.5 50q51 0 96.5 -19.5t92.5 -19.5q45 0 71.5 18.5t59.5 18.5 q41 0 65.5 -29.5t24.5 -80.5q0 -74 -49 -126.5t-123 -52.5q-51 0 -97.5 19.5t-93.5 19.5q-45 0 -71.5 -17t-57.5 -17q-41 0 -65.5 27.5t-24.5 80.5z" />
<glyph unicode="&#xd6;" horiz-adv-x="1546" d="M57 727q0 174 52.5 315.5t146.5 242.5t225 156.5t291 55.5t291 -55.5t226 -156.5t147.5 -242.5t52.5 -315.5q0 -172 -51.5 -314.5t-145.5 -243.5t-226 -156.5t-294 -55.5t-294 55.5t-225 156.5t-144.5 243.5t-51.5 314.5zM418 723q0 -104 25.5 -187t72.5 -141.5 t112.5 -89.5t143.5 -31t143.5 31t112.5 89.5t72.5 141t25.5 187.5q0 109 -25.5 193.5t-72.5 144t-111.5 90.5t-144.5 31t-144.5 -31t-111.5 -90.5t-72.5 -144t-25.5 -193.5zM453 1747q0 76 38.5 121t104.5 45t104.5 -44t38.5 -122t-39 -121t-104 -43q-66 0 -104.5 44 t-38.5 120zM805 1747q0 76 39 121t104 45q66 0 104.5 -44t38.5 -122t-38.5 -121t-104.5 -43t-104.5 44t-38.5 120z" />
<glyph unicode="&#xd7;" d="M43 385l338 342l-336 340l193 197l335 -340l336 340l195 -195l-338 -342l338 -340l-195 -197l-334 340l-337 -342z" />
<glyph unicode="&#xd8;" horiz-adv-x="1546" d="M20 -8q0 49 50 102l131 142q-70 98 -107 221t-37 270q0 172 52.5 314.5t145.5 243.5t225 156.5t292 55.5q262 0 445 -145l102 114q29 33 53.5 51.5t52.5 18.5q41 0 68 -25.5t27 -62.5q0 -29 -13.5 -51.5t-38.5 -50.5l-116 -134q72 -113 104.5 -230.5t32.5 -254.5 q0 -172 -51.5 -314.5t-145.5 -243.5t-226 -156.5t-294 -55.5q-135 0 -245.5 36t-192.5 103l-113 -125q-29 -31 -52.5 -51t-55.5 -20q-39 0 -66 25.5t-27 66.5zM418 723q0 -106 35 -211l534 592q-33 35 -91 56.5t-124 21.5q-80 0 -144.5 -31t-111.5 -90.5t-72.5 -144.5 t-25.5 -193zM561 348q92 -74 211 -74q78 0 143.5 31t112.5 89.5t72.5 141t25.5 187.5q0 109 -30 211z" />
<glyph unicode="&#xd9;" horiz-adv-x="1507" d="M129 625v614q0 236 166 236t166 -236v-577q0 -387 293 -388q293 0 293 388v577q0 236 165 236q166 0 166 -236v-614q0 -164 -44 -288t-126 -209t-196.5 -128t-257.5 -43t-259 43t-197 128t-125 209t-44 288zM484 1898q0 55 36.5 91t92.5 36q70 0 116 -65l150 -205 q35 -47 35 -90q0 -51 -31 -82t-80 -31q-53 0 -110 64l-156 172q-53 59 -53 110z" />
<glyph unicode="&#xda;" horiz-adv-x="1507" d="M129 625v614q0 236 166 236t166 -236v-577q0 -387 293 -388q293 0 293 388v577q0 236 165 236q166 0 166 -236v-614q0 -164 -44 -288t-126 -209t-196.5 -128t-257.5 -43t-259 43t-197 128t-125 209t-44 288zM588 1665q0 43 35 90l149 205q47 66 117 65q55 0 92 -35.5 t37 -86.5q0 -55 -53 -115l-156 -172q-57 -63 -110 -64q-51 0 -81 32t-30 81z" />
<glyph unicode="&#xdb;" horiz-adv-x="1507" d="M129 625v614q0 236 166 236t166 -236v-577q0 -387 293 -388q293 0 293 388v577q0 236 165 236q166 0 166 -236v-614q0 -164 -44 -288t-126 -209t-196.5 -128t-257.5 -43t-259 43t-197 128t-125 209t-44 288zM385 1673q0 37 15.5 61.5t46.5 49.5l223 174q43 33 84 33 t84 -33l223 -174q31 -25 46.5 -50.5t15.5 -60.5q0 -47 -28 -75.5t-69 -28.5q-43 0 -94 30l-178 109l-178 -109q-53 -31 -94 -30q-41 0 -69 28.5t-28 75.5z" />
<glyph unicode="&#xdc;" horiz-adv-x="1507" d="M129 625v614q0 236 166 236t166 -236v-577q0 -387 293 -388q293 0 293 388v577q0 236 165 236q166 0 166 -236v-614q0 -164 -44 -288t-126 -209t-196.5 -128t-257.5 -43t-259 43t-197 128t-125 209t-44 288zM435 1747q0 76 38.5 121t104.5 45t104.5 -44t38.5 -122 t-39 -121t-104 -43q-66 0 -104.5 44t-38.5 120zM787 1747q0 76 39 121t104 45q66 0 104.5 -44t38.5 -122t-38.5 -121t-104.5 -43t-104.5 44t-38.5 120z" />
<glyph unicode="&#xdd;" horiz-adv-x="1056" d="M-39 1329q0 55 44 101.5t116 46.5q43 0 84 -33t86 -96l248 -355l252 359q88 125 178 125q27 0 53.5 -12.5t47 -33t32.5 -46t12 -52.5q0 -49 -22.5 -87t-53.5 -81l-336 -479v-469q0 -236 -165 -235q-166 0 -166 235v469l-336 475q-31 43 -52.5 81t-21.5 87zM362 1665 q0 43 35 90l149 205q47 66 117 65q55 0 92 -35.5t37 -86.5q0 -55 -53 -115l-156 -172q-57 -63 -110 -64q-51 0 -81 32t-30 81z" />
<glyph unicode="&#xde;" horiz-adv-x="1241" d="M129 217v1022q0 236 166 236q80 0 123 -55.5t43 -166.5v-14h196q125 0 224.5 -35t168 -99.5t104.5 -156.5t36 -205q0 -229 -132 -361t-374 -132h-223v-33q0 -236 -166 -235q-166 0 -166 235zM461 551h143q227 0 227 192q0 193 -227 193h-143v-385z" />
<glyph unicode="&#xdf;" horiz-adv-x="1193" d="M111 221v823q0 123 35.5 218.5t101 161t155 99t197.5 33.5q98 0 179 -31.5t140.5 -87t92 -131t32.5 -163.5q0 -166 -131 -277q236 -102 236 -368q0 -119 -40 -216.5t-105.5 -166t-153.5 -105.5t-182 -37q-74 0 -115 40t-41 112q0 55 27.5 85t81.5 52q47 18 84.5 37.5 t63.5 44.5t40 58.5t14 80.5q0 76 -42 120t-130 73q-80 27 -117.5 63.5t-37.5 104.5q0 57 26.5 85.5t85.5 55.5q61 27 91 59.5t30 83.5q0 59 -38 96.5t-99 37.5q-72 0 -115 -52.5t-43 -146.5v-842q0 -236 -162 -235q-162 0 -161 235z" />
<glyph unicode="&#xe0;" horiz-adv-x="1232" d="M47 545q0 123 40 227.5t108.5 181t159.5 119.5t194 43q162 0 258 -115q57 102 154 103q84 0 121.5 -57.5t37.5 -176.5v-649q0 -236 -159 -235q-102 0 -154 112q-100 -123 -270 -123q-98 0 -187.5 41t-157 117t-106.5 180.5t-39 231.5zM346 1528q0 55 36.5 91t92.5 36 q70 0 116 -66l150 -205q35 -47 35 -90q0 -51 -31 -81.5t-80 -30.5q-53 0 -110 63l-156 172q-53 59 -53 111zM381 549q0 -123 59.5 -193.5t149.5 -70.5t148.5 71.5t58.5 192.5q0 119 -59.5 188.5t-147.5 69.5t-148.5 -68.5t-60.5 -189.5z" />
<glyph unicode="&#xe1;" horiz-adv-x="1232" d="M47 545q0 123 40 227.5t108.5 181t159.5 119.5t194 43q162 0 258 -115q57 102 154 103q84 0 121.5 -57.5t37.5 -176.5v-649q0 -236 -159 -235q-102 0 -154 112q-100 -123 -270 -123q-98 0 -187.5 41t-157 117t-106.5 180.5t-39 231.5zM381 549q0 -123 59.5 -193.5 t149.5 -70.5t148.5 71.5t58.5 192.5q0 119 -59.5 188.5t-147.5 69.5t-148.5 -68.5t-60.5 -189.5zM450 1294q0 43 35 90l149 205q47 66 117 66q55 0 92 -36t37 -87q0 -55 -53 -115l-156 -172q-57 -63 -110 -63q-51 0 -81 31.5t-30 80.5z" />
<glyph unicode="&#xe2;" horiz-adv-x="1232" d="M47 545q0 123 40 227.5t108.5 181t159.5 119.5t194 43q162 0 258 -115q57 102 154 103q84 0 121.5 -57.5t37.5 -176.5v-649q0 -236 -159 -235q-102 0 -154 112q-100 -123 -270 -123q-98 0 -187.5 41t-157 117t-106.5 180.5t-39 231.5zM247 1303q0 37 15.5 61.5t46.5 48.5 l223 174q43 33 84 33t84 -33l223 -174q31 -25 46.5 -50.5t15.5 -59.5q0 -47 -28 -76t-69 -29q-43 0 -94 31l-178 108l-178 -108q-53 -31 -94 -31t-69 28.5t-28 76.5zM381 549q0 -123 59.5 -193.5t149.5 -70.5t148.5 71.5t58.5 192.5q0 119 -59.5 188.5t-147.5 69.5 t-148.5 -68.5t-60.5 -189.5z" />
<glyph unicode="&#xe3;" horiz-adv-x="1232" d="M47 545q0 123 40 227.5t108.5 181t159.5 119.5t194 43q162 0 258 -115q57 102 154 103q84 0 121.5 -57.5t37.5 -176.5v-649q0 -236 -159 -235q-102 0 -154 112q-100 -123 -270 -123q-98 0 -187.5 41t-157 117t-106.5 180.5t-39 231.5zM325 1341q0 78 50.5 128.5 t121.5 50.5q51 0 96.5 -19.5t92.5 -19.5q45 0 71.5 18.5t59.5 18.5q41 0 65.5 -30t24.5 -81q0 -74 -49 -126t-123 -52q-51 0 -97.5 19.5t-93.5 19.5q-45 0 -71.5 -17.5t-57.5 -17.5q-41 0 -65.5 27.5t-24.5 80.5zM381 549q0 -123 59.5 -193.5t149.5 -70.5t148.5 71.5 t58.5 192.5q0 119 -59.5 188.5t-147.5 69.5t-148.5 -68.5t-60.5 -189.5z" />
<glyph unicode="&#xe4;" horiz-adv-x="1232" d="M47 545q0 123 40 227.5t108.5 181t159.5 119.5t194 43q162 0 258 -115q57 102 154 103q84 0 121.5 -57.5t37.5 -176.5v-649q0 -236 -159 -235q-102 0 -154 112q-100 -123 -270 -123q-98 0 -187.5 41t-157 117t-106.5 180.5t-39 231.5zM297 1376q0 76 38.5 121t104.5 45 t104.5 -44t38.5 -122t-39 -121t-104 -43q-66 0 -104.5 44t-38.5 120zM381 549q0 -123 59.5 -193.5t149.5 -70.5t148.5 71.5t58.5 192.5q0 119 -59.5 188.5t-147.5 69.5t-148.5 -68.5t-60.5 -189.5zM649 1376q0 76 39 121t104 45q66 0 104.5 -44t38.5 -122t-38.5 -121 t-104.5 -43t-104.5 44t-38.5 120z" />
<glyph unicode="&#xe5;" horiz-adv-x="1232" d="M47 545q0 123 40 227.5t108.5 181t159.5 119.5t194 43q162 0 258 -115q57 102 154 103q84 0 121.5 -57.5t37.5 -176.5v-649q0 -236 -159 -235q-102 0 -154 112q-100 -123 -270 -123q-98 0 -187.5 41t-157 117t-106.5 180.5t-39 231.5zM381 549q0 -123 59.5 -193.5 t149.5 -70.5t148.5 71.5t58.5 192.5q0 119 -59.5 188.5t-147.5 69.5t-148.5 -68.5t-60.5 -189.5zM399 1380q0 45 17.5 84t47 69t69.5 47t83 17q45 0 84 -17t68.5 -47t47 -69t17.5 -84t-17.5 -84t-47 -68.5t-68.5 -47t-84 -17.5t-84 17.5t-68.5 47t-47 68.5t-17.5 84z M534 1380q0 -35 23.5 -57.5t58.5 -22.5t57.5 23t22.5 57q0 35 -22.5 57.5t-57.5 22.5t-58.5 -22.5t-23.5 -57.5z" />
<glyph unicode="&#xe6;" horiz-adv-x="1875" d="M47 545q0 123 40 227.5t108.5 181t159.5 119.5t194 43q162 0 258 -115q55 98 139 99q82 0 119 -86q117 106 278 106q100 0 191.5 -43t160 -115.5t108.5 -170t40 -205.5q0 -41 -9 -66.5t-29.5 -40t-50.5 -19.5t-71 -5h-575q10 -92 74.5 -142.5t169.5 -50.5q61 0 110 16.5 t91 36t75 36t62 16.5q59 0 95 -35t36 -90q0 -47 -36 -94.5t-96.5 -86t-142.5 -62.5t-174 -24q-197 0 -299 115q-35 -102 -129 -102q-88 0 -137 110q-100 -123 -270 -123q-98 0 -187.5 41t-157 117t-106.5 180.5t-39 231.5zM369 549q0 -129 65.5 -205t159.5 -76 q96 0 160.5 76t64.5 205q0 125 -64.5 199.5t-160.5 74.5q-94 0 -159.5 -72.5t-65.5 -201.5zM1102 666h426q-6 86 -65.5 139t-141.5 53t-142.5 -51t-76.5 -141z" />
<glyph unicode="&#xe7;" horiz-adv-x="972" d="M47 545q0 125 39 230.5t111.5 181t175 118.5t229.5 43q164 0 262.5 -57t98.5 -150q0 -59 -37 -98t-97 -39q-23 0 -48 7t-53 16.5t-59.5 17.5t-66.5 8q-98 0 -160.5 -73.5t-62.5 -198.5q0 -127 62.5 -199.5t172.5 -72.5q35 0 67 7t59.5 16t51 17.5t44.5 8.5q55 0 90 -41 t35 -99q0 -63 -58.5 -116.5t-161.5 -77.5q39 -31 58.5 -73t19.5 -83q0 -102 -97 -170.5t-269 -68.5q-131 0 -201 43t-70 112q0 43 31 69.5t88 26.5q35 0 66.5 -5t64.5 -5q94 0 94 64q0 27 -20.5 45t-36.5 35q-96 18 -174 65t-133.5 120t-85 168t-29.5 208z" />
<glyph unicode="&#xe8;" d="M47 543q0 123 41 229.5t113.5 183t172 120.5t216.5 44t213 -43t165.5 -115.5t108.5 -170t39 -205.5q0 -41 -9 -66.5t-29.5 -40t-50.5 -19.5t-71 -5h-581q10 -92 76.5 -142.5t171.5 -50.5q61 0 111 16.5t91 36t75 36t63 16.5q59 0 94 -35t35 -90q0 -47 -37 -95.5 t-101.5 -87.5t-153.5 -63.5t-194 -24.5q-119 0 -221 43t-177 119t-118 181.5t-43 228.5zM336 1528q0 55 36.5 91t92.5 36q70 0 116 -66l150 -205q35 -47 35 -90q0 -51 -31 -81.5t-80 -30.5q-53 0 -110 63l-156 172q-53 59 -53 111zM375 666h426q-6 86 -66.5 139t-142.5 53 t-141.5 -51t-75.5 -141z" />
<glyph unicode="&#xe9;" d="M47 543q0 123 41 229.5t113.5 183t172 120.5t216.5 44t213 -43t165.5 -115.5t108.5 -170t39 -205.5q0 -41 -9 -66.5t-29.5 -40t-50.5 -19.5t-71 -5h-581q10 -92 76.5 -142.5t171.5 -50.5q61 0 111 16.5t91 36t75 36t63 16.5q59 0 94 -35t35 -90q0 -47 -37 -95.5 t-101.5 -87.5t-153.5 -63.5t-194 -24.5q-119 0 -221 43t-177 119t-118 181.5t-43 228.5zM375 666h426q-6 86 -66.5 139t-142.5 53t-141.5 -51t-75.5 -141zM440 1294q0 43 35 90l149 205q47 66 117 66q55 0 92 -36t37 -87q0 -55 -53 -115l-156 -172q-57 -63 -110 -63 q-51 0 -81 31.5t-30 80.5z" />
<glyph unicode="&#xea;" d="M47 543q0 123 41 229.5t113.5 183t172 120.5t216.5 44t213 -43t165.5 -115.5t108.5 -170t39 -205.5q0 -41 -9 -66.5t-29.5 -40t-50.5 -19.5t-71 -5h-581q10 -92 76.5 -142.5t171.5 -50.5q61 0 111 16.5t91 36t75 36t63 16.5q59 0 94 -35t35 -90q0 -47 -37 -95.5 t-101.5 -87.5t-153.5 -63.5t-194 -24.5q-119 0 -221 43t-177 119t-118 181.5t-43 228.5zM237 1303q0 37 15.5 61.5t46.5 48.5l223 174q43 33 84 33t84 -33l223 -174q31 -25 46.5 -50.5t15.5 -59.5q0 -47 -28 -76t-69 -29q-43 0 -94 31l-178 108l-178 -108q-53 -31 -94 -31 t-69 28.5t-28 76.5zM375 666h426q-6 86 -66.5 139t-142.5 53t-141.5 -51t-75.5 -141z" />
<glyph unicode="&#xeb;" d="M47 543q0 123 41 229.5t113.5 183t172 120.5t216.5 44t213 -43t165.5 -115.5t108.5 -170t39 -205.5q0 -41 -9 -66.5t-29.5 -40t-50.5 -19.5t-71 -5h-581q10 -92 76.5 -142.5t171.5 -50.5q61 0 111 16.5t91 36t75 36t63 16.5q59 0 94 -35t35 -90q0 -47 -37 -95.5 t-101.5 -87.5t-153.5 -63.5t-194 -24.5q-119 0 -221 43t-177 119t-118 181.5t-43 228.5zM287 1376q0 76 38.5 121t104.5 45t104.5 -44t38.5 -122t-39 -121t-104 -43q-66 0 -104.5 44t-38.5 120zM375 666h426q-6 86 -66.5 139t-142.5 53t-141.5 -51t-75.5 -141zM639 1376 q0 76 39 121t104 45q66 0 104.5 -44t38.5 -122t-38.5 -121t-104.5 -43t-104.5 44t-38.5 120z" />
<glyph unicode="&#xec;" horiz-adv-x="563" d="M13 1528q0 55 36.5 91t92.5 36q70 0 116 -66l150 -205q35 -47 35 -90q0 -51 -31 -81.5t-80 -30.5q-53 0 -110 63l-156 172q-53 59 -53 111zM121 221v649q0 233 162 234q160 0 159 -234v-649q0 -119 -37.5 -177t-121.5 -58q-162 0 -162 235z" />
<glyph unicode="&#xed;" horiz-adv-x="563" d="M117 1294q0 43 35 90l149 205q47 66 117 66q55 0 92 -36t37 -87q0 -55 -53 -115l-156 -172q-57 -63 -110 -63q-51 0 -81 31.5t-30 80.5zM121 221v649q0 233 162 234q160 0 159 -234v-649q0 -119 -37.5 -177t-121.5 -58q-162 0 -162 235z" />
<glyph unicode="&#xee;" horiz-adv-x="563" d="M-86 1303q0 37 15.5 61.5t46.5 48.5l223 174q43 33 84 33t84 -33l223 -174q31 -25 46.5 -50.5t15.5 -59.5q0 -47 -28 -76t-69 -29q-43 0 -94 31l-178 108l-178 -108q-53 -31 -94 -31t-69 28.5t-28 76.5zM121 221v649q0 233 162 234q160 0 159 -234v-649 q0 -119 -37.5 -177t-121.5 -58q-162 0 -162 235z" />
<glyph unicode="&#xef;" horiz-adv-x="563" d="M-36 1376q0 76 38.5 121t104.5 45t104.5 -44t38.5 -122t-39 -121t-104 -43q-66 0 -104.5 44t-38.5 120zM121 221v649q0 233 162 234q160 0 159 -234v-649q0 -119 -37.5 -177t-121.5 -58q-162 0 -162 235zM316 1376q0 76 39 121t104 45q66 0 104.5 -44t38.5 -122 t-38.5 -121t-104.5 -43t-104.5 44t-38.5 120z" />
<glyph unicode="&#xf0;" horiz-adv-x="1130" d="M47 516q0 115 37 212t98.5 169t142.5 112t169 40q27 0 73 -9l-94 129l-158 -92q-23 -12 -45 -12q-16 0 -29.5 13.5t-13.5 35.5q0 35 37 57l144 82q-43 59 -68 103.5t-25 85.5q0 53 34 88t83 35q47 0 100.5 -42t122.5 -122l138 84q8 4 19 8t22 4q20 0 32.5 -13.5 t12.5 -35.5q0 -35 -35 -57l-121 -72q84 -104 151.5 -199.5t114.5 -188.5t71.5 -187.5t24.5 -198.5q0 -131 -37.5 -237.5t-107.5 -182.5t-165 -117t-210 -41q-113 0 -208 41t-163.5 114t-107.5 173t-39 221zM365 518q0 -123 57 -191.5t143 -68.5q88 0 145.5 70.5t57.5 189.5 q0 117 -58.5 187.5t-144.5 70.5t-143 -69.5t-57 -188.5z" />
<glyph unicode="&#xf1;" horiz-adv-x="1206" d="M111 221v649q0 233 161 234q96 0 154 -103q53 59 121.5 84t163.5 25q190 0 291.5 -107.5t101.5 -318.5v-463q0 -236 -162 -235q-162 0 -162 235v365q0 129 -37.5 189.5t-136.5 60.5q-92 0 -132 -61.5t-40 -184.5v-369q0 -236 -162 -235q-162 0 -161 235zM334 1341 q0 78 50.5 128.5t121.5 50.5q51 0 96.5 -19.5t92.5 -19.5q45 0 71.5 18.5t59.5 18.5q41 0 65.5 -30t24.5 -81q0 -74 -49 -126t-123 -52q-51 0 -97.5 19.5t-93.5 19.5q-45 0 -71.5 -17.5t-57.5 -17.5q-41 0 -65.5 27.5t-24.5 80.5z" />
<glyph unicode="&#xf2;" horiz-adv-x="1187" d="M47 545q0 125 41 231.5t113.5 183t173 119.5t219.5 43t219 -43t173 -119.5t113 -183t40 -231.5q0 -127 -40 -232.5t-113 -182.5t-173 -120t-219 -43t-219.5 43t-173 120t-113.5 182.5t-41 232.5zM324 1528q0 55 36.5 91t92.5 36q70 0 116 -66l150 -205q35 -47 35 -90 q0 -51 -31 -81.5t-80 -30.5q-53 0 -110 63l-156 172q-53 59 -53 111zM381 549q0 -129 60.5 -202t152.5 -73t152.5 74t60.5 201q0 123 -61.5 196.5t-151.5 73.5t-151.5 -71.5t-61.5 -198.5z" />
<glyph unicode="&#xf3;" horiz-adv-x="1187" d="M47 545q0 125 41 231.5t113.5 183t173 119.5t219.5 43t219 -43t173 -119.5t113 -183t40 -231.5q0 -127 -40 -232.5t-113 -182.5t-173 -120t-219 -43t-219.5 43t-173 120t-113.5 182.5t-41 232.5zM381 549q0 -129 60.5 -202t152.5 -73t152.5 74t60.5 201 q0 123 -61.5 196.5t-151.5 73.5t-151.5 -71.5t-61.5 -198.5zM428 1294q0 43 35 90l149 205q47 66 117 66q55 0 92 -36t37 -87q0 -55 -53 -115l-156 -172q-57 -63 -110 -63q-51 0 -81 31.5t-30 80.5z" />
<glyph unicode="&#xf4;" horiz-adv-x="1187" d="M47 545q0 125 41 231.5t113.5 183t173 119.5t219.5 43t219 -43t173 -119.5t113 -183t40 -231.5q0 -127 -40 -232.5t-113 -182.5t-173 -120t-219 -43t-219.5 43t-173 120t-113.5 182.5t-41 232.5zM225 1303q0 37 15.5 61.5t46.5 48.5l223 174q43 33 84 33t84 -33l223 -174 q31 -25 46.5 -50.5t15.5 -59.5q0 -47 -28 -76t-69 -29q-43 0 -94 31l-178 108l-178 -108q-53 -31 -94 -31t-69 28.5t-28 76.5zM381 549q0 -129 60.5 -202t152.5 -73t152.5 74t60.5 201q0 123 -61.5 196.5t-151.5 73.5t-151.5 -71.5t-61.5 -198.5z" />
<glyph unicode="&#xf5;" horiz-adv-x="1187" d="M47 545q0 125 41 231.5t113.5 183t173 119.5t219.5 43t219 -43t173 -119.5t113 -183t40 -231.5q0 -127 -40 -232.5t-113 -182.5t-173 -120t-219 -43t-219.5 43t-173 120t-113.5 182.5t-41 232.5zM303 1341q0 78 50.5 128.5t121.5 50.5q51 0 96.5 -19.5t92.5 -19.5 q45 0 71.5 18.5t59.5 18.5q41 0 65.5 -30t24.5 -81q0 -74 -49 -126t-123 -52q-51 0 -97.5 19.5t-93.5 19.5q-45 0 -71.5 -17.5t-57.5 -17.5q-41 0 -65.5 27.5t-24.5 80.5zM381 549q0 -129 60.5 -202t152.5 -73t152.5 74t60.5 201q0 123 -61.5 196.5t-151.5 73.5 t-151.5 -71.5t-61.5 -198.5z" />
<glyph unicode="&#xf6;" horiz-adv-x="1187" d="M47 545q0 125 41 231.5t113.5 183t173 119.5t219.5 43t219 -43t173 -119.5t113 -183t40 -231.5q0 -127 -40 -232.5t-113 -182.5t-173 -120t-219 -43t-219.5 43t-173 120t-113.5 182.5t-41 232.5zM275 1376q0 76 38.5 121t104.5 45t104.5 -44t38.5 -122t-39 -121t-104 -43 q-66 0 -104.5 44t-38.5 120zM381 549q0 -129 60.5 -202t152.5 -73t152.5 74t60.5 201q0 123 -61.5 196.5t-151.5 73.5t-151.5 -71.5t-61.5 -198.5zM627 1376q0 76 39 121t104 45q66 0 104.5 -44t38.5 -122t-38.5 -121t-104.5 -43t-104.5 44t-38.5 120z" />
<glyph unicode="&#xf7;" d="M68 590v274h1011v-274h-1011zM399 354q0 80 48.5 127t125.5 47q78 0 125 -47t47 -127q0 -78 -47 -125t-127 -47q-76 0 -124 47t-48 125zM399 1098q0 80 48.5 127t125.5 47q78 0 125 -47t47 -127q0 -78 -47 -125t-127 -47q-76 0 -124 47t-48 125z" />
<glyph unicode="&#xf8;" horiz-adv-x="1187" d="M18 10q0 23 10.5 40.5t30.5 39.5l95 100q-106 160 -107 355q0 125 41 231.5t113.5 183t173 119.5t219.5 43q201 0 332 -106l92 94q20 20 36.5 31.5t41.5 11.5q29 0 50 -20.5t21 -51.5q0 -23 -10 -40t-31 -40l-94 -100q49 -63 78 -156.5t29 -199.5q0 -127 -40 -232.5 t-113 -182.5t-173 -120t-219 -43q-193 0 -336 113l-90 -98q-20 -23 -37.5 -33t-40.5 -10q-31 0 -51.5 20.5t-20.5 50.5zM367 549q0 -55 12 -119l344 369q-55 41 -123 41q-49 0 -92 -20.5t-74 -58.5t-49 -91.5t-18 -120.5zM459 295q61 -43 131 -43q49 0 92 21.5t74.5 61.5 t49 95t17.5 123q0 43 -5 70.5t-9 42.5z" />
<glyph unicode="&#xf9;" horiz-adv-x="1185" d="M104 440v430q0 233 162 234q160 0 160 -234v-364q0 -115 34 -175.5t132 -60.5t132 60.5t34 175.5v364q0 233 162 234q84 0 121.5 -57.5t37.5 -176.5v-430q0 -233 -126 -353t-361 -120q-236 0 -362 120t-126 353zM322 1528q0 55 36.5 91t92.5 36q70 0 116 -66l150 -205 q35 -47 35 -90q0 -51 -31 -81.5t-80 -30.5q-53 0 -110 63l-156 172q-53 59 -53 111z" />
<glyph unicode="&#xfa;" horiz-adv-x="1185" d="M104 440v430q0 233 162 234q160 0 160 -234v-364q0 -115 34 -175.5t132 -60.5t132 60.5t34 175.5v364q0 233 162 234q84 0 121.5 -57.5t37.5 -176.5v-430q0 -233 -126 -353t-361 -120q-236 0 -362 120t-126 353zM426 1294q0 43 35 90l149 205q47 66 117 66q55 0 92 -36 t37 -87q0 -55 -53 -115l-156 -172q-57 -63 -110 -63q-51 0 -81 31.5t-30 80.5z" />
<glyph unicode="&#xfb;" horiz-adv-x="1185" d="M104 440v430q0 233 162 234q160 0 160 -234v-364q0 -115 34 -175.5t132 -60.5t132 60.5t34 175.5v364q0 233 162 234q84 0 121.5 -57.5t37.5 -176.5v-430q0 -233 -126 -353t-361 -120q-236 0 -362 120t-126 353zM223 1303q0 37 15.5 61.5t46.5 48.5l223 174q43 33 84 33 t84 -33l223 -174q31 -25 46.5 -50.5t15.5 -59.5q0 -47 -28 -76t-69 -29q-43 0 -94 31l-178 108l-178 -108q-53 -31 -94 -31t-69 28.5t-28 76.5z" />
<glyph unicode="&#xfc;" horiz-adv-x="1185" d="M104 440v430q0 233 162 234q160 0 160 -234v-364q0 -115 34 -175.5t132 -60.5t132 60.5t34 175.5v364q0 233 162 234q84 0 121.5 -57.5t37.5 -176.5v-430q0 -233 -126 -353t-361 -120q-236 0 -362 120t-126 353zM273 1376q0 76 38.5 121t104.5 45t104.5 -44t38.5 -122 t-39 -121t-104 -43q-66 0 -104.5 44t-38.5 120zM625 1376q0 76 39 121t104 45q66 0 104.5 -44t38.5 -122t-38.5 -121t-104.5 -43t-104.5 44t-38.5 120z" />
<glyph unicode="&#xfd;" horiz-adv-x="985" d="M0 944q0 68 46 114t112 46q68 0 101.5 -40t62.5 -116l182 -487l198 514q27 66 60 97.5t82 31.5q74 0 117 -41t43 -113q0 -47 -27 -112l-492 -1168q-27 -61 -57.5 -96t-83.5 -35q-76 0 -118 42t-42 114q0 55 27 110l133 289l-326 760q-10 23 -14 46.5t-4 43.5zM328 1294 q0 43 35 90l149 205q47 66 117 66q55 0 92 -36t37 -87q0 -55 -53 -115l-156 -172q-57 -63 -110 -63q-51 0 -81 31.5t-30 80.5z" />
<glyph unicode="&#xfe;" horiz-adv-x="1232" d="M111 -215v1544q0 236 161 236q162 0 162 -236v-321q45 49 110.5 76.5t147.5 27.5q100 0 190.5 -42t157 -117.5t105.5 -179t39 -228.5q0 -123 -40 -228.5t-107.5 -183.5t-158 -123t-190.5 -45q-145 0 -254 94v-274q0 -236 -162 -236t-161 236zM428 541q0 -129 60.5 -202 t152.5 -73t152.5 74t60.5 201q0 123 -61.5 196.5t-151.5 73.5t-151.5 -71.5t-61.5 -198.5z" />
<glyph unicode="&#xff;" horiz-adv-x="985" d="M0 944q0 68 46 114t112 46q68 0 101.5 -40t62.5 -116l182 -487l198 514q27 66 60 97.5t82 31.5q74 0 117 -41t43 -113q0 -47 -27 -112l-492 -1168q-27 -61 -57.5 -96t-83.5 -35q-76 0 -118 42t-42 114q0 55 27 110l133 289l-326 760q-10 23 -14 46.5t-4 43.5zM175 1376 q0 76 38.5 121t104.5 45t104.5 -44t38.5 -122t-39 -121t-104 -43q-66 0 -104.5 44t-38.5 120zM527 1376q0 76 39 121t104 45q66 0 104.5 -44t38.5 -122t-38.5 -121t-104.5 -43t-104.5 44t-38.5 120z" />
<glyph unicode="&#x152;" horiz-adv-x="2031" d="M57 727q0 174 52.5 314.5t146.5 238.5t225 151.5t291 53.5q123 0 220.5 -39t162.5 -107q12 117 201 117h373q236 0 235 -156q0 -154 -235 -153h-271v-260h236q233 0 233 -154t-233 -153h-236v-273h281q236 0 235 -153q0 -154 -235 -154h-385q-94 0 -141.5 20.5 t-61.5 100.5q-68 -72 -170 -111t-231 -39q-152 0 -279 53.5t-219 152.5t-143.5 238.5t-51.5 311.5zM418 723q0 -104 25.5 -187t72.5 -141.5t112.5 -89.5t143.5 -31t143.5 31t112.5 89.5t72.5 141t25.5 187.5q0 109 -25.5 193.5t-72.5 144t-111.5 90.5t-144.5 31t-144.5 -31 t-111.5 -90.5t-72.5 -144t-25.5 -193.5z" />
<glyph unicode="&#x153;" horiz-adv-x="1892" d="M47 545q0 125 41 231.5t113.5 183t173 119.5t219.5 43t215 -43t162 -125q66 80 160 123t208 43q113 0 208 -43t165 -116.5t109 -171t39 -203.5q0 -41 -9.5 -66.5t-29 -40t-49 -19.5t-70.5 -5h-578q10 -92 75 -142.5t169 -50.5q61 0 110.5 16.5t91.5 36t74.5 36t61.5 16.5 q59 0 95 -35t36 -90q0 -49 -37 -97.5t-101.5 -86.5t-154.5 -62.5t-194 -24.5q-129 0 -226.5 46t-154.5 130q-63 -88 -158.5 -134t-216.5 -46q-119 0 -219.5 43t-173 120t-113.5 182.5t-41 232.5zM371 549q0 -135 65.5 -212t163.5 -77t163.5 79t65.5 210q0 129 -65.5 205.5 t-163.5 76.5t-163.5 -75.5t-65.5 -206.5zM1120 666h424q-6 86 -65.5 139t-141.5 53t-141 -51t-76 -141z" />
<glyph unicode="&#x178;" horiz-adv-x="1056" d="M-39 1329q0 55 44 101.5t116 46.5q43 0 84 -33t86 -96l248 -355l252 359q88 125 178 125q27 0 53.5 -12.5t47 -33t32.5 -46t12 -52.5q0 -49 -22.5 -87t-53.5 -81l-336 -479v-469q0 -236 -165 -235q-166 0 -166 235v469l-336 475q-31 43 -52.5 81t-21.5 87zM209 1747 q0 76 38.5 121t104.5 45t104.5 -44t38.5 -122t-39 -121t-104 -43q-66 0 -104.5 44t-38.5 120zM561 1747q0 76 39 121t104 45q66 0 104.5 -44t38.5 -122t-38.5 -121t-104.5 -43t-104.5 44t-38.5 120z" />
<glyph unicode="&#x2c6;" horiz-adv-x="1024" d="M143 1303q0 37 15.5 61.5t46.5 48.5l223 174q43 33 84 33t84 -33l223 -174q31 -25 46.5 -50.5t15.5 -59.5q0 -47 -28 -76t-69 -29q-43 0 -94 31l-178 108l-178 -108q-53 -31 -94 -31t-69 28.5t-28 76.5z" />
<glyph unicode="&#x2dc;" horiz-adv-x="1024" d="M221 1341q0 78 50.5 128.5t121.5 50.5q51 0 96.5 -19.5t92.5 -19.5q45 0 71.5 18.5t59.5 18.5q41 0 65.5 -30t24.5 -81q0 -74 -49 -126t-123 -52q-51 0 -97.5 19.5t-93.5 19.5q-45 0 -71.5 -17.5t-57.5 -17.5q-41 0 -65.5 27.5t-24.5 80.5z" />
<glyph unicode="&#x2000;" horiz-adv-x="1012" />
<glyph unicode="&#x2001;" horiz-adv-x="2025" />
<glyph unicode="&#x2002;" horiz-adv-x="1012" />
<glyph unicode="&#x2003;" horiz-adv-x="2025" />
<glyph unicode="&#x2004;" horiz-adv-x="675" />
<glyph unicode="&#x2005;" horiz-adv-x="506" />
<glyph unicode="&#x2006;" horiz-adv-x="337" />
<glyph unicode="&#x2007;" horiz-adv-x="337" />
<glyph unicode="&#x2008;" horiz-adv-x="253" />
<glyph unicode="&#x2009;" horiz-adv-x="405" />
<glyph unicode="&#x200a;" horiz-adv-x="112" />
<glyph unicode="&#x2010;" horiz-adv-x="876" d="M70 569q0 66 42 103t119 37h416q78 0 119 -38t41 -104q0 -139 -162 -139h-416q-78 0 -118.5 38t-40.5 103z" />
<glyph unicode="&#x2011;" horiz-adv-x="876" d="M70 569q0 66 42 103t119 37h416q78 0 119 -38t41 -104q0 -139 -162 -139h-416q-78 0 -118.5 38t-40.5 103z" />
<glyph unicode="&#x2012;" horiz-adv-x="876" d="M70 569q0 66 42 103t119 37h416q78 0 119 -38t41 -104q0 -139 -162 -139h-416q-78 0 -118.5 38t-40.5 103z" />
<glyph unicode="&#x2013;" horiz-adv-x="1024" d="M0 569q0 49 30.5 77t90.5 28h782q57 0 89 -29t32 -76q0 -49 -30.5 -76.5t-90.5 -27.5h-782q-57 0 -89 28.5t-32 75.5z" />
<glyph unicode="&#x2014;" horiz-adv-x="2048" d="M0 569q0 47 37 76t108 29h1760q70 0 106.5 -29t36.5 -76q0 -49 -37 -76.5t-108 -27.5h-1758q-72 0 -108.5 29.5t-36.5 74.5z" />
<glyph unicode="&#x2018;" horiz-adv-x="473" d="M61 1126q0 82 29 151t73 119t97 77.5t102 27.5q25 0 43.5 -16.5t18.5 -38.5q0 -37 -32 -52.5t-77 -39.5q-53 -29 -77.5 -68t-26.5 -94q43 16 74 16q66 0 106.5 -42t40.5 -113q0 -70 -48 -117t-124 -47q-43 0 -80 18.5t-62.5 50t-41 74.5t-15.5 94z" />
<glyph unicode="&#x2019;" horiz-adv-x="473" d="M61 1329q0 72 48.5 120t123.5 48q86 0 143.5 -68.5t57.5 -179.5q0 -76 -28.5 -142.5t-72.5 -115.5t-97.5 -77.5t-104.5 -28.5q-25 0 -43 16.5t-18 38.5q0 37 31.5 53.5t76.5 40.5q53 29 78 67t27 93q-37 -14 -74 -14q-66 0 -107 41t-41 108z" />
<glyph unicode="&#x201a;" horiz-adv-x="473" d="M55 164q0 72 47.5 120t122.5 48q86 0 143.5 -69.5t57.5 -180.5q0 -76 -27.5 -141.5t-71.5 -114.5t-97.5 -78t-104.5 -29q-25 0 -43.5 16.5t-18.5 39.5q0 37 31 52t76 40q53 29 78.5 68t27.5 94q-43 -16 -75 -17q-66 0 -106 42t-40 110z" />
<glyph unicode="&#x201c;" horiz-adv-x="923" d="M61 1126q0 82 29 151t73 119t98 77.5t104 27.5q25 0 43 -16.5t18 -38.5q0 -37 -32 -52.5t-77 -39.5q-53 -29 -78.5 -68t-27.5 -94q43 16 76 16q66 0 105.5 -42t39.5 -113q0 -70 -47 -117t-123 -47q-43 0 -80 18.5t-63.5 50t-42 74.5t-15.5 94zM516 1126q0 82 28.5 151 t73 119t97.5 77.5t102 27.5q25 0 43.5 -16.5t18.5 -38.5q0 -37 -31 -52.5t-76 -39.5q-53 -29 -78.5 -68t-27.5 -94q43 16 73 16q66 0 107 -42t41 -113q0 -70 -48 -117t-124 -47q-43 0 -80 18.5t-62.5 50t-41 74.5t-15.5 94z" />
<glyph unicode="&#x201d;" horiz-adv-x="923" d="M61 1329q0 72 48.5 120t123.5 48q86 0 143.5 -68.5t57.5 -179.5q0 -76 -28.5 -142.5t-72.5 -115.5t-97.5 -77.5t-104.5 -28.5q-25 0 -43 16.5t-18 38.5q0 37 31.5 53.5t76.5 40.5q53 29 78 67t27 93q-37 -14 -74 -14q-66 0 -107 41t-41 108zM516 1329q0 72 48 120t124 48 q86 0 142.5 -68.5t56.5 -179.5q0 -76 -28 -142.5t-72 -115.5t-97 -77.5t-104 -28.5q-25 0 -43.5 16.5t-18.5 38.5q0 37 31 53.5t76 40.5q53 29 78.5 67t27.5 93q-37 -14 -73 -14q-66 0 -107 41t-41 108z" />
<glyph unicode="&#x201e;" horiz-adv-x="923" d="M55 164q0 72 47.5 120t122.5 48q86 0 143.5 -69.5t57.5 -180.5q0 -76 -27.5 -141.5t-71.5 -114.5t-97.5 -78t-104.5 -29q-25 0 -43.5 16.5t-18.5 39.5q0 37 31 52t76 40q53 29 78.5 68t27.5 94q-43 -16 -75 -17q-66 0 -106 42t-40 110zM506 164q0 72 47 120t123 48 q86 0 143.5 -69.5t57.5 -180.5q0 -76 -29 -141.5t-73 -114.5t-97 -78t-105 -29q-25 0 -43 16.5t-18 39.5q0 37 31.5 52t77.5 40q53 29 78.5 68t27.5 94q-43 -16 -76 -17q-66 0 -105.5 42t-39.5 110z" />
<glyph unicode="&#x2022;" horiz-adv-x="1208" d="M307 762q0 61 23.5 114.5t63.5 93.5t94.5 63.5t115.5 23.5t114.5 -23.5t93.5 -63.5t63.5 -93.5t23.5 -114.5t-23.5 -114.5t-63.5 -94.5t-94 -64.5t-116 -23.5q-61 0 -115.5 23.5t-94.5 63.5t-62.5 94.5t-22.5 115.5z" />
<glyph unicode="&#x2026;" horiz-adv-x="2048" d="M156 172q0 78 54 132t132 54t131 -54t53 -132q0 -39 -14 -72.5t-38.5 -59.5t-58.5 -40t-73 -14q-78 0 -132 54t-54 132zM838 172q0 78 54 132t132 54t131 -54t53 -132q0 -39 -14 -72.5t-39 -59.5t-58.5 -40t-72.5 -14q-78 0 -132 54t-54 132zM1522 172q0 78 54 132 t132 54t131 -54t53 -132q0 -39 -14 -72.5t-38.5 -59.5t-58.5 -40t-73 -14q-78 0 -132 54t-54 132z" />
<glyph unicode="&#x202f;" horiz-adv-x="405" />
<glyph unicode="&#x2039;" horiz-adv-x="559" d="M47 539q0 47 12.5 82.5t35 64.5t57 56.5t77.5 60.5q63 47 109.5 74.5t85.5 27.5q37 0 59.5 -29.5t22.5 -89.5q0 -51 -19.5 -72.5t-48.5 -43.5l-176 -131l176 -129q31 -23 49.5 -44.5t18.5 -72.5q0 -59 -22.5 -89t-61.5 -30q-41 0 -85 27.5t-108 74.5q-43 31 -76.5 57.5 t-57 56.5t-36 64.5t-12.5 84.5z" />
<glyph unicode="&#x203a;" horiz-adv-x="559" d="M53 293q0 51 19.5 72.5t48.5 44.5l174 131l-174 129q-31 23 -49.5 44t-18.5 72q0 59 22.5 89t61.5 30q41 0 84 -27.5t107 -74.5q43 -31 76.5 -58.5t57 -56.5t37 -64.5t13.5 -82.5t-12.5 -83t-37 -66t-58 -57.5t-76.5 -60.5q-63 -47 -109.5 -73.5t-85.5 -26.5 q-37 0 -58.5 29.5t-21.5 89.5z" />
<glyph unicode="&#x205f;" horiz-adv-x="506" />
<glyph unicode="&#x20ac;" horiz-adv-x="1327" d="M2 559q0 33 26.5 55.5t86.5 22.5h88q-2 23 -3 44t-1 46v38t2 38h-78q-57 0 -85 22.5t-28 53.5q0 33 26.5 56t86.5 23h96q47 256 204 397.5t408 141.5q96 0 178.5 -20.5t141.5 -53t93 -74.5t34 -85q0 -59 -41 -104.5t-100 -45.5q-29 0 -64 9.5t-75 21.5t-84 21.5t-89 9.5 q-111 0 -171 -55.5t-85 -162.5h498q59 0 85 -23.5t26 -55.5q0 -31 -27 -53.5t-84 -22.5h-518q-2 -23 -2 -41.5v-42.5v-41.5t2 -40.5h450q59 0 85 -22.5t26 -55.5q0 -31 -26.5 -54.5t-84.5 -23.5h-430q29 -104 92.5 -159.5t180.5 -55.5q51 0 97 12.5t86 28t75 28.5t63 13 q51 0 92 -40t41 -99q0 -49 -32.5 -94t-93 -80t-145.5 -56.5t-187 -21.5q-262 0 -416 137t-203 387h-104q-57 0 -85 23.5t-28 54.5z" />
<glyph unicode="&#x2122;" horiz-adv-x="1515" d="M70 1384q0 78 118 78h291q117 0 117 -78q0 -76 -117 -75h-63v-461q0 -119 -82 -119q-84 0 -84 119v461h-62q-119 0 -118 75zM590 815q0 20 6 49l90 494q10 57 34.5 84.5t78.5 27.5q92 0 116 -98l111 -430l104 432q23 96 113 96q55 0 82 -29.5t37 -88.5l80 -498 q6 -25 6 -39q0 -41 -24.5 -63.5t-61.5 -22.5q-70 0 -82 96l-53 432q-51 -221 -84 -346t-51 -153q-10 -16 -26.5 -22.5t-43.5 -6.5q-41 0 -63.5 18.5t-34.5 65.5l-109 444l-57 -421q-14 -106 -86 -107q-37 0 -59.5 22.5t-22.5 63.5z" />
<glyph unicode="&#x25fc;" horiz-adv-x="1105" d="M0 0v1106h1106v-1106h-1106z" />
</font>
</defs>
</svg>
